<?xml version="1.0" encoding="utf-8"?>
<!-- Generator: Adobe Illustrator 27.0.1, SVG Export Plug-In . SVG Version: 6.00 Build 0)  -->
<svg version="1.1" xmlns="http://www.w3.org/2000/svg" xmlns:xlink="http://www.w3.org/1999/xlink" x="0px" y="0px"
	 viewBox="0 0 1280 720" style="enable-background:new 0 0 1280 720;" xml:space="preserve">
<style type="text/css">
	.st0{fill:#36A9E1;}
	.st1{fill:none;}
	.st2{font-family:'MyriadPro-Regular';}
	.st3{font-size:200px;}
	.st4{font-size:48px;}
</style>
<g id="Capa_2">
	<g>
		<g>
			<path class="st0" d="M154.96,166.35c14.91-15.11,30.37-30.22,49.1-40.57c17.67-9.77,39.06-15.41,59.05-10.18
				c16.26,4.25,31.53,15.78,36.96,32.13c6.65,20-1.72,41.2-13.9,57.17c-6.23,8.17-13.6,15.44-21.13,22.4
				c-7.3,6.75-14.91,13.19-22.9,19.11c-15.9,11.77-33.43,21.8-52.54,27.27c-9.29,2.66-18.87,4.18-28.53,4.27
				c-8.39,0.07-17.19-0.77-24.75-4.71c-3.36-1.75-6.49-4.11-8.63-7.28c-2.57-3.81-3.57-8.24-3.32-12.8
				c0.53-9.87,6.09-18.97,11.43-26.97c10.59-15.85,24.27-29.44,39.27-41.12c15.24-11.87,31.96-21.8,49.07-30.72
				c4.17-2.17,8.37-4.28,12.59-6.35c1.21-0.59,1.54-2.32,0.9-3.42c-0.72-1.24-2.2-1.49-3.42-0.9c-18.03,8.82-35.7,18.51-52.14,30.05
				c-16.27,11.42-31.42,24.67-43.67,40.39c-6.3,8.09-12.32,16.77-16.1,26.35c-3.72,9.43-4.59,20.59,1.86,29.08
				c5.4,7.12,14.09,10.76,22.67,12.3c9.7,1.74,19.78,1.29,29.49-0.17c20.26-3.04,39.36-11.72,56.48-22.74
				c8.81-5.67,17.19-12.01,25.2-18.76c8.04-6.78,15.85-13.93,23.04-21.61c14.66-15.65,26.89-35.3,26.34-57.49
				c-0.24-9.93-3.29-19.64-9.13-27.7c-5.38-7.44-12.61-13.45-20.77-17.63c-18.75-9.59-40.68-8.67-60.1-1.55
				c-21,7.7-38.6,21.92-54.54,37.27c-3.86,3.72-7.64,7.51-11.4,11.32C149.16,165.11,152.69,168.64,154.96,166.35L154.96,166.35z"/>
		</g>
	</g>
	<g>
		<g>
			<path class="st0" d="M432.5,397.71c1.5,0.38,2.92,0.85,4.35,1.44c-19.91-8.4-39.81-16.8-59.72-25.2
				c1.73,0.82,3.32,1.76,4.88,2.88c-16.87-13.03-33.73-26.06-50.6-39.09c2.14,1.68,3.98,3.53,5.68,5.66
				c-13.03-16.87-26.06-33.73-39.09-50.6c1.88,2.54,3.4,5.21,4.65,8.11c-8.4-19.91-16.8-39.81-25.2-59.72
				c1.15,2.94,1.96,5.92,2.43,9.04c-2.98-22.15-5.95-44.31-8.93-66.46c0.52,4.44,0.45,8.82-0.08,13.25
				c2.98-22.15,5.95-44.31,8.93-66.46c-1.43,9.93-4.91,19.34-8.79,28.54c8.4-19.91,16.8-39.81,25.2-59.72
				c-7.82,18.27-17.92,35.43-30,51.2c13.03-16.87,26.06-33.73,39.09-50.6c-12.4,16.02-26.73,30.42-42.73,42.86
				c16.87-13.03,33.73-26.06,50.6-39.09c-15.38,11.83-32.12,21.72-49.99,29.3c19.91-8.4,39.81-16.8,59.72-25.2
				c-16.88,7.05-34.51,11.88-52.63,14.4c22.15-2.98,44.31-5.95,66.46-8.93c-19.29,2.56-38.79,2.52-58.07-0.04
				c22.15,2.98,44.31,5.95,66.46,8.93c-18.82-2.61-37.19-7.59-54.7-14.97c19.91,8.4,39.81,16.8,59.72,25.2
				c-15.49-6.64-30.1-15.08-43.49-25.33c16.87,13.03,33.73,26.06,50.6,39.09c-8.77-6.81-17.07-14.25-23.93-23.01
				c13.03,16.87,26.06,33.73,39.09,50.6c-3.53-4.67-6.55-9.6-8.92-14.96c8.4,19.91,16.8,39.81,25.2,59.72
				c-2.07-4.98-3.48-10.1-4.3-15.44c2.98,22.15,5.95,44.31,8.93,66.46c-0.9-6.71-0.85-13.37,0.01-20.08
				c-2.98,22.15-5.95,44.31-8.93,66.46c1.11-7.66,3.23-15.04,6.23-22.17c-8.4,19.91-16.8,39.81-25.2,59.72
				c3.45-7.86,7.93-15.12,13.16-21.92c-13.03,16.87-26.06,33.73-39.09,50.6c8.1-10.3,17.69-19.2,28.02-27.23
				c-16.87,13.03-33.73,26.06-50.6,39.09c21.56-16.56,45.57-29.83,70.58-40.4c-19.91,8.4-39.81,16.8-59.72,25.2
				c34.79-14.55,71.56-23.68,108.89-28.73c-22.15,2.98-44.31,5.95-66.46,8.93c38.6-5.12,78.22-6.83,116.92-1.79
				c-22.15-2.98-44.31-5.95-66.46-8.93c19.56,2.65,39.25,6.91,57.51,14.58c-19.91-8.4-39.81-16.8-59.72-25.2
				c9.08,3.91,17.72,8.7,25.62,14.67c-16.87-13.03-33.73-26.06-50.6-39.09c5.43,4.22,10.38,8.94,14.62,14.36
				c-13.03-16.87-26.06-33.73-39.09-50.6c2.91,3.85,5.37,7.92,7.33,12.33c-8.4-19.91-16.8-39.81-25.2-59.72
				c1.89,4.5,3.16,9.13,3.81,13.97c-2.98-22.15-5.95-44.31-8.93-66.46c0.51,4.57,0.43,9.09-0.14,13.65
				c2.98-22.15,5.95-44.31,8.93-66.46c-0.96,6.52-2.86,12.74-5.35,18.83c8.4-19.91,16.8-39.81,25.2-59.72
				c-7.33,17.21-18.3,33.1-29.68,47.86c13.03-16.87,26.06-33.73,39.09-50.6c-12.64,16.25-26.96,31.15-43.26,43.76
				c16.87-13.03,33.73-26.06,50.6-39.09c-12.19,9.31-25.33,17.2-39.43,23.25c19.91-8.4,39.81-16.8,59.72-25.2
				c-12.05,5.06-24.61,8.53-37.55,10.36c22.15-2.98,44.31-5.95,66.46-8.93c-12.87,1.71-25.85,1.79-38.72,0.08
				c22.15,2.98,44.31,5.95,66.46,8.93c-10.71-1.52-21.14-4.25-31.15-8.36c19.91,8.4,39.81,16.8,59.72,25.2
				c-8.81-3.72-17.08-8.45-24.69-14.25c16.87,13.03,33.73,26.06,50.6,39.09c-5.04-3.94-9.8-8.22-13.83-13.21
				c13.03,16.87,26.06,33.73,39.09,50.6c-2.12-2.79-3.89-5.69-5.26-8.92c8.4,19.91,16.8,39.81,25.2,59.72
				c-0.97-2.52-1.65-5.03-2.07-7.7c2.98,22.15,5.95,44.31,8.93,66.46c-0.42-3.37-0.39-6.69,0.04-10.06
				c-2.98,22.15-5.95,44.31-8.93,66.46c0.6-3.82,1.66-7.47,3.11-11.06c-8.4,19.91-16.8,39.81-25.2,59.72
				c2.24-5.23,5.17-10.03,8.62-14.55c-13.03,16.87-26.06,33.73-39.09,50.6c4.37-5.53,9.36-10.45,14.93-14.78
				c-16.87,13.03-33.73,26.06-50.6,39.09c8.71-6.57,18.44-11.78,28.45-16.09c-19.91,8.4-39.81,16.8-59.72,25.2
				c16.88-7.1,34.71-11.32,52.81-13.8c-22.15,2.98-44.31,5.95-66.46,8.93c22.99-3.04,46.22-3.42,69.38-2.97
				c22.71,0.44,45.41,1.89,67.93,4.87c-22.15-2.98-44.31-5.95-66.46-8.93c31.13,4.2,61.9,11.41,90.91,23.62
				c-19.91-8.4-39.81-16.8-59.72-25.2c18.66,7.96,36.34,17.95,52.48,30.27c-16.87-13.03-33.73-26.06-50.6-39.09
				c35.47,27.42,60.42,65.19,91.83,96.71c4.36,4.37,8.84,8.62,13.48,12.68c2.32,2.03,4.69,4.02,7.09,5.95
				c18.83,15.12,38.01,29.99,57.43,44.34c38.99,22.61,81.05,33.99,126.18,34.13c34.42,1.3,66.53-5.88,96.32-21.53
				c30.99-10.08,57.81-27.31,80.46-51.69c30.98-31.19,52.42-67.97,64.29-110.32c21.77-71.58,40.34-144.12,55.59-217.37
				c3.93-18.89,7.44-38,14.92-55.89c-8.4,19.91-16.8,39.81-25.2,59.72c3.32-7.69,7.31-14.95,12.37-21.63
				c-13.03,16.87-26.06,33.73-39.09,50.6c4.05-5.19,8.6-9.89,13.75-14c-16.87,13.03-33.73,26.06-50.6,39.09
				c4.5-3.47,9.29-6.36,14.51-8.61c-19.91,8.4-39.81,16.8-59.72,25.2c4.13-1.67,8.33-2.86,12.73-3.56
				c-22.15,2.98-44.31,5.95-66.46,8.93c0.4-0.05,0.8-0.11,1.21-0.16c34.42,1.3,66.53-5.88,96.32-21.53
				c30.99-10.08,57.81-27.31,80.46-51.69c24.38-22.64,41.61-49.46,51.69-80.46c15.65-29.79,22.83-61.9,21.53-96.32
				c-2.98-22.15-5.95-44.31-8.93-66.46c-11.88-42.35-33.31-79.12-64.29-110.32c-16.87-13.03-33.73-26.06-50.6-39.09
				c-38.99-22.61-81.05-33.99-126.18-34.13c-24.03,3.2-48.76,4.24-72.42,10.02c-2.34,0.57-4.61,1.33-6.87,2.18
				c-21.96,8.26-44.25,16.83-65.19,27.69c-2.5,1.3-4.91,2.78-7.22,4.4c-20.69,14.52-41.93,29.11-59.95,46.94
				c-1.75,1.73-3.42,3.55-5.01,5.44c-15.3,18.2-29.93,37.02-43.6,56.47c-2.71,3.86-5.09,7.93-7.19,12.15
				c-12.17,24.42-22.9,49.75-31.76,75.57c-3.74,10.9-6.28,22.17-8.64,33.43c-10.31,49.25-21.48,98.26-34.44,146.88
				c-7.46,28-15.43,55.86-23.86,83.59c122.42-49.8,244.83-99.61,367.25-149.41c-1.42-1.05-2.83-2.12-4.24-3.2
				c16.87,13.03,33.73,26.06,50.6,39.09c-28.41-22.22-50.15-51.19-73.96-77.96c-11.76-13.22-24.11-25.98-37.96-37.02
				c-17.97-14.33-36.35-28.47-54.72-42.29c-1.73-1.3-3.47-2.59-5.24-3.85c-3.51-2.51-7.1-4.91-10.75-7.21
				c-7.46-4.7-15.19-8.96-23.12-12.82c-26.97-13.11-54.8-24.58-82.87-35.12c-8.11-3.05-16.36-5.73-24.7-8.08
				c-16.88-4.76-34.11-8.21-51.46-10.68c-39.33-5.6-78.8-11.83-118.56-13.69c-17.97-0.84-36.01-1.12-53.99-0.5
				c-9.05,0.31-18.09,0.88-27.1,1.84c-26.23,2.81-52.46,6.56-78.53,10.47c-4.43,0.67-8.85,1.44-13.24,2.35
				c-8.7,1.79-17.3,4.1-25.68,7.05c-24.04,8.47-48.04,19.54-70.81,29.56c-4.25,1.87-8.42,3.89-12.49,6.13
				c-3.7,2.04-7.33,4.23-10.82,6.61c-20.8,14.12-41.05,29.38-59.71,46.24c-2.92,2.64-5.66,5.48-8.18,8.51
				c-14.65,17.68-28.66,35.92-42.12,54.51c-1.43,1.98-2.77,4.03-3.97,6.15c-12.33,21.65-21.23,45.49-29.41,68.87
				c-0.57,1.63-1.06,3.29-1.44,4.98c-0.25,1.11-0.43,2.23-0.62,3.35c-2.98,22.15-5.95,44.31-8.93,66.46
				c-0.11,0.74-0.19,1.49-0.25,2.24c-0.15,1.86-0.17,3.73-0.03,5.59c1.77,23.58,4.93,47.14,9.46,70.35
				c0.37,1.88,0.93,3.69,1.58,5.49c7.41,20.52,15.84,44.65,27.65,64.78c12.76,21.76,28.78,42.09,46.59,60.01
				c2.93,2.95,6.1,5.62,9.36,8.19c14.6,11.57,38.91,32.5,59.42,45.21c3.37,2.09,6.86,3.99,10.43,5.71
				c22.7,10.88,45.99,20.64,69.59,29.37c3.92,1.45,7.92,2.69,11.97,3.73c3.68,0.95,7.41,1.72,11.16,2.34
				c23.46,3.87,47.63,6.75,71.23,9.63c2.4,0.29,4.8,0.55,7.21,0.73c8.08,0.6,16.2,0.5,24.27-0.27c2.02-0.19,4.03-0.44,6.05-0.7
				c23.48-3.01,47.32-5.68,70.67-9.57c4.2-0.7,8.37-1.58,12.5-2.64c3.92-1.01,7.79-2.18,11.61-3.51c1.71-0.6,3.41-1.23,5.1-1.89
				c21.8-8.54,43.59-17.97,65.02-27.39c7.79-3.42,15.33-7.36,22.55-11.86c3.61-2.24,7.14-4.61,10.58-7.09
				c20.58-14.8,40.56-30.46,60.22-46.46c6.8-5.53,13.24-11.49,19.35-17.77c5.99-6.17,11.66-12.65,17.01-19.37
				c18.13-22.76,37.18-45.97,53.55-70.4c5.05-7.54,9.91-15.25,14.01-23.35c1.08-2.12,2.08-4.28,3.04-6.45
				c8.53-19.23,17.92-41.47,25.76-61.03c0.53-1.32,1.06-2.62,1.55-3.96c1.61-4.4,2.78-8.89,3.6-13.5
				c4.18-23.77,8.02-47.84,9.54-71.97c0.15-2.32,0.14-4.65-0.03-6.97c-1.73-23.89-5.51-47.64-9.51-71.26
				c-0.31-1.84-0.73-3.67-1.24-5.47c-6.86-23.9-17.65-46.83-28.85-68.95c-6.25-12.35-18.15-25.16-25.47-34.64
				c-7.7-9.96-16.48-23.27-26.3-32.87c-17.75-17.35-41.36-33.34-59.39-46.58c-6.38-4.68-13.18-8.69-20.35-12.03
				c-35.7-16.67-72.07-33.49-111.15-40.15c-26.46-4.51-53.24-7.62-79.86-10.89c-4.99-0.61-9.99-1.1-14.99-1.48
				c-10.29-0.78-20.61-1.1-30.93-1.06c-19.46,0.07-38.95,1.28-58.29,3.51c-58.66,6.74-118.55,13.19-174.11,34.47
				c-28.37,10.87-56.47,22.6-83.97,35.51c-8.58,4.03-16.99,8.41-25.19,13.15c-8,4.62-15.81,9.59-23.36,14.91
				C48.88-26.94,24.64-9.1,2.5,10.94c-3.34,3.02-6.55,6.18-9.61,9.48c-1.37,1.48-2.7,3-4,4.54c-0.72,0.86-1.43,1.73-2.13,2.6
				C-26.79,44.36-41.05,63-53.98,80.28c-2.69,3.59-5.22,7.29-7.47,11.18c-12.77,22.07-21.59,48.15-30.6,70.65
				c-1.69,4.22-3.13,8.51-4.2,12.93c-0.53,2.2-0.94,4.42-1.31,6.65c-3.41,20.69-6.64,46.92-9.12,67.8c-0.19,1.57-0.38,3.12-0.5,4.7
				c-0.32,4.24-0.28,8.5,0.15,12.73c2.47,24,5.28,48.03,9.7,71.75c0.49,2.63,1.15,5.23,1.97,7.77
				c3.81,11.72,10.41,25.21,14.49,34.89c4.17,9.88,9.11,23.81,14.93,34.71c1.05,1.97,2.21,3.89,3.45,5.75
				c13.03,19.59,28.36,37.8,43.06,56.02c5.64,6.99,12.19,13.14,19.14,18.81c22.43,18.28,45.32,37.54,70.1,53.04
				c7.13,4.46,14.55,8.45,22.18,11.97c26.88,12.41,54.33,24.97,82.63,34.16c8.22,2.67,16.6,4.84,25.08,6.5
				c29.78,5.83,60.04,9.73,90.27,12.23c8.41,0.7,16.87,0.91,25.31,0.62c30.11-1.04,61.53-6.83,90.4-11.1
				c8.35-1.23,16.62-2.97,24.75-5.22c7.86-2.17,15.58-4.82,23.13-7.89c26.06-10.62,55.36-21.4,81.04-35.28
				c7.28-3.93,14.33-8.27,21.13-12.98c23.82-16.49,46.79-34.35,68.84-53.12c12.34-10.5,23.53-22.27,33.51-35.02
				c22.57-28.86,48.1-57.79,64.53-91.17c13.18-26.77,25-54.38,34.9-82.52c1.49-4.23,2.78-8.54,3.66-12.94
				c0.29-1.46,0.5-2.92,0.73-4.39c1.49-11.08,2.98-22.15,4.47-33.23c1.72-11.54,3.26-23.11,4.64-34.7c0.27-2.95,0.41-5.88,0.2-8.84
				c-1.67-24.04-4.86-48.09-9.61-71.71c-0.35-1.73-0.83-3.43-1.42-5.09c-7.71-21.64-16.72-42.88-26.79-63.52
				c-0.86-1.76-1.88-3.42-2.99-5.03c-35.2-50.83-45.41-61.19-96.06-96.28c-1.58-1.09-3.16-2.01-4.88-2.88
				c-9.95-4.2-19.91-8.4-29.86-12.6c-10.28-4.4-20.58-8.75-30.91-13.04c-1.1-0.38-2.17-0.72-3.3-1
				c-33.23-10.42-66.46-11.91-99.69-4.47c-33.27,1.51-64.25,11.4-92.95,29.67c-29.13,15.71-52.51,37.17-70.14,64.39
				c-22.1,24.15-37.01,52.49-44.75,85.02c-2.98,22.15-5.95,44.31-8.93,66.46c0.14,45.13,11.52,87.19,34.13,126.18
				c13.03,16.87,26.06,33.73,39.09,50.6C353.38,364.4,390.15,385.83,432.5,397.71L432.5,397.71z"/>
		</g>
	</g>
	<g>
		<g>
			<path class="st0" d="M903.41,314.08c2.38,2.67,4.66,5.41,6.86,8.23c-13.03-16.87-26.06-33.73-39.09-50.6
				c7.93,10.43,14.34,21.79,19.49,33.82c-8.4-19.91-16.8-39.81-25.2-59.72c9.15,21.83,14.05,45.04,17.19,68.42
				c-2.98-22.15-5.95-44.31-8.93-66.46c5.37,40.99,6.3,82.46,10.6,123.56c4.71,45.08,10.89,90.04,17.7,134.84
				c3.5,23.04,7.55,46,12.13,68.85c4.78,23.83,10.68,47.46,14,71.56c-2.98-22.15-5.95-44.31-8.93-66.46
				c2.13,16.17,2.99,32.47,0.93,48.69c2.98-22.15,5.95-44.31,8.93-66.46c-1.38,9.85-3.85,19.39-7.7,28.57
				c8.4-19.91,16.8-39.81,25.2-59.72c-1.73,3.94-3.53,7.83-6.1,11.31c13.03-16.87,26.06-33.73,39.09-50.6
				c-0.63,0.79-1.32,1.52-2.09,2.18c16.87-13.03,33.73-26.06,50.6-39.09c-0.77,0.65-1.61,1.2-2.52,1.63
				c19.91-8.4,39.81-16.8,59.72-25.2c-0.96,0.45-1.97,0.75-3.02,0.91c22.15-2.98,44.31-5.95,66.46-8.93
				c-1.67,0.15-3.09,0.12-4.76-0.06c22.15,2.98,44.31,5.95,66.46,8.93c-7.21-1.35-14.15-4.48-21.07-6.86
				c-7.6-2.62-15.24-5.14-22.9-7.58c-14.72-4.69-29.53-9.06-44.43-13.14c-30.09-8.24-60.5-15.3-91.09-21.42
				c-30.67-6.13-61.52-11.33-92.46-15.84c-52.51-7.66-105.17-14.7-157.92-20.53c-63.14-6.98-126.45-12.37-189.73-17.88
				c-66.36-5.79-132.76-11.24-199.27-15.06c-66.12-3.8-132.36-5.99-198.59-5.28c-8.2,0.09-16.4,0.22-24.59,0.4
				c-34.42-1.3-66.53,5.88-96.32,21.53c-30.99,10.08-57.81,27.31-80.46,51.69c-24.38,22.64-41.61,49.46-51.69,80.46
				c-15.65,29.79-22.83,61.9-21.53,96.32c2.98,22.15,5.95,44.31,8.93,66.46c11.88,42.35,33.31,79.12,64.29,110.32
				c16.87,13.03,33.73,26.06,50.6,39.09c38.99,22.61,81.05,33.99,126.18,34.13c90.18-1.92,180.37,1.73,270.34,7.85
				c88.39,6.01,176.68,13.91,264.89,22.18c47.93,4.5,95.82,9.5,143.54,15.91c-22.15-2.98-44.31-5.95-66.46-8.93
				c78.14,10.55,155.93,24.92,231.6,47.36c18.98,5.63,37.79,11.79,56.44,18.43c24.29,8.65,52.26,11.2,76.86,11.66
				c23.86,0.44,48.17-3.05,71.15-9.39c48.35-13.33,56.31-21.66,89.03-46.94c11.09-8.57,18.83-12.84,26.89-21.15
				c3.96-4.08,36.14-46.27,39.59-51.17c1.2-1.7,2.28-3.39,3.24-5.23c1.03-1.99,1.94-4.03,2.86-6.07
				c8.6-19.31,18.08-41.63,25.85-61.26c0.51-1.29,1.02-2.57,1.49-3.87c1.4-3.87,2.56-7.83,3.5-11.84c0.5-2.13,0.93-4.28,1.31-6.44
				c4.13-23.53,6.77-47.65,9.68-71.34c1.09-8.85,1.43-17.71,1.07-26.62c-0.18-4.53-0.53-9.05-0.99-13.56
				c-2.68-26.19-6.62-52.34-10.42-78.38c-1.33-9.11-3.04-18.16-4.89-27.18c-9.2-44.81-18.21-89.45-24.34-134.81
				c2.98,22.15,5.95,44.31,8.93,66.46c-5.62-41.95-8.7-84-11.8-126.18c-2.93-39.79-8.26-79.51-14.63-118.86
				c-2.82-17.42-6.87-34.72-13.23-51.21c-9.3-24.13-19.21-48.09-30.23-71.49c-2.03-4.3-4.23-8.52-6.64-12.62
				c-2.54-4.33-5.3-8.54-8.27-12.59c-13.71-18.67-28.27-37.37-42.8-55.42c-1.6-1.99-3.27-3.93-4.97-5.84
				c-22.64-24.38-49.46-41.61-80.46-51.69c-29.79-15.65-61.9-22.83-96.32-21.53c-34.42-1.3-66.53,5.88-96.32,21.53
				c-30.99,10.08-57.81,27.31-80.46,51.69c-13.03,16.87-26.06,33.73-39.09,50.6c-22.61,38.99-33.99,81.05-34.13,126.18
				c2.98,22.15,5.95,44.31,8.93,66.46C851,246.11,872.43,282.88,903.41,314.08L903.41,314.08z"/>
		</g>
	</g>
</g>
<g id="Capa_1">
	<rect x="490.63" y="217.98" class="st1" width="380.65" height="189.66"/>
	<text transform="matrix(1 0 0 1 490.6311 359.9803)" class="st2 st3">404</text>
	<rect x="35.92" y="480.71" class="st1" width="310.29" height="56.57"/>
	<text transform="matrix(1 0 0 1 35.9178 514.7947)" class="st2 st4">Page not found</text>
	<polyline points="0,0 0,0 0,0 	"/>
</g>
</svg>
