<?xml version="1.0" encoding="utf-8"?>
<!-- Generator: Adobe Illustrator 24.0.3, SVG Export Plug-In . SVG Version: 6.00 Build 0)  -->
<svg version="1.1" id="Layer_1" xmlns="http://www.w3.org/2000/svg" xmlns:xlink="http://www.w3.org/1999/xlink" x="0px" y="0px"
	 viewBox="0 0 2000 1647.56" style="enable-background:new 0 0 2000 1647.56;" xml:space="preserve">
<style type="text/css">
	.st0{fill:url(#SVGID_1_);}
	.st1{fill:url(#SVGID_2_);}
	.st2{fill:url(#SVGID_3_);}
	.st3{fill:url(#SVGID_4_);}
	.st4{fill:url(#SVGID_5_);}
	.st5{fill:url(#SVGID_6_);}
	.st6{fill:url(#SVGID_7_);}
	.st7{fill:url(#SVGID_8_);}
	.st8{fill:url(#SVGID_9_);}
	.st9{fill:url(#SVGID_10_);}
	.st10{fill:url(#SVGID_11_);}
	.st11{fill:url(#SVGID_12_);}
	.st12{fill:url(#SVGID_13_);}
	.st13{fill:url(#SVGID_14_);}
	.st14{fill:url(#SVGID_15_);}
	.st15{fill:url(#SVGID_16_);}
	.st16{fill:url(#SVGID_17_);}
	.st17{fill:url(#SVGID_18_);}
	.st18{fill:url(#SVGID_19_);}
	.st19{fill:url(#SVGID_20_);}
	.st20{fill:url(#SVGID_21_);}
	.st21{opacity:0.7;fill:url(#SVGID_22_);}
	.st22{opacity:0.67;fill:url(#SVGID_23_);}
	.st23{fill:url(#SVGID_24_);}
	.st24{opacity:0.7;fill:url(#SVGID_25_);}
	.st25{opacity:0.67;fill:url(#SVGID_26_);}
	.st26{fill:url(#SVGID_27_);}
	.st27{opacity:0.7;fill:url(#SVGID_28_);}
	.st28{opacity:0.67;fill:url(#SVGID_29_);}
	.st29{fill:url(#SVGID_30_);}
	.st30{opacity:0.7;fill:url(#SVGID_31_);}
	.st31{opacity:0.67;fill:url(#SVGID_32_);}
	.st32{fill:url(#SVGID_33_);}
	.st33{opacity:0.7;fill:url(#SVGID_34_);}
	.st34{opacity:0.67;fill:url(#SVGID_35_);}
	.st35{opacity:0.7;fill:url(#SVGID_36_);}
	.st36{fill:url(#SVGID_37_);}
	.st37{fill:url(#SVGID_38_);}
	.st38{fill:url(#SVGID_39_);}
	.st39{fill:url(#SVGID_40_);}
	.st40{fill:url(#SVGID_41_);}
	.st41{fill:url(#SVGID_42_);}
	.st42{fill:url(#SVGID_43_);}
	.st43{fill:url(#SVGID_44_);}
	.st44{fill:url(#SVGID_45_);}
	.st45{fill:url(#SVGID_46_);}
	.st46{fill:url(#SVGID_47_);}
	.st47{fill:url(#SVGID_48_);}
	.st48{fill:url(#SVGID_49_);}
	.st49{fill:url(#SVGID_50_);}
	.st50{fill:url(#SVGID_51_);}
	.st51{fill:url(#SVGID_52_);}
	.st52{fill:url(#SVGID_53_);}
	.st53{fill:url(#SVGID_54_);}
	.st54{fill:#385067;}
	.st55{fill:url(#SVGID_55_);}
	.st56{fill:#FFFFFF;}
	.st57{fill:url(#SVGID_56_);}
	.st58{fill:url(#SVGID_57_);}
	.st59{fill:url(#SVGID_58_);}
	.st60{fill:url(#SVGID_59_);}
	.st61{fill:url(#SVGID_60_);}
	.st62{fill:url(#SVGID_61_);}
	.st63{fill:url(#SVGID_62_);}
	.st64{fill:url(#SVGID_63_);}
	.st65{fill:url(#SVGID_64_);}
	.st66{fill:url(#SVGID_65_);}
	.st67{fill:url(#SVGID_66_);}
	.st68{fill:url(#SVGID_67_);}
	.st69{fill:url(#SVGID_68_);}
	.st70{fill:url(#SVGID_69_);}
	.st71{fill:url(#SVGID_70_);}
	.st72{fill:url(#SVGID_71_);}
	.st73{fill:url(#SVGID_72_);}
	.st74{fill:url(#SVGID_73_);}
	.st75{fill:url(#SVGID_74_);}
	.st76{fill:url(#SVGID_75_);}
	.st77{fill:url(#SVGID_76_);}
	.st78{fill:url(#SVGID_77_);}
	.st79{fill:url(#SVGID_78_);}
	.st80{fill:url(#SVGID_79_);}
	.st81{fill:url(#SVGID_80_);}
	.st82{fill:url(#SVGID_81_);}
	.st83{fill:url(#SVGID_82_);}
	.st84{fill:url(#SVGID_83_);}
	.st85{fill:url(#SVGID_84_);}
	.st86{fill:url(#SVGID_85_);}
	.st87{opacity:0.67;fill:url(#SVGID_86_);}
	.st88{opacity:0.67;fill:url(#SVGID_87_);}
	.st89{opacity:0.67;fill:url(#SVGID_88_);}
	.st90{opacity:0.67;fill:url(#SVGID_89_);}
	.st91{fill:url(#SVGID_90_);}
	.st92{fill:url(#SVGID_91_);}
	.st93{fill:url(#SVGID_92_);}
	.st94{fill:url(#SVGID_93_);}
	.st95{fill:url(#SVGID_94_);}
	.st96{fill:url(#SVGID_95_);}
	.st97{fill:url(#SVGID_96_);}
	.st98{fill:url(#SVGID_97_);}
	.st99{fill:url(#SVGID_98_);}
	.st100{fill:url(#SVGID_99_);}
	.st101{fill:url(#SVGID_100_);}
	.st102{fill:url(#SVGID_101_);}
	.st103{fill:url(#SVGID_102_);}
	.st104{fill:url(#SVGID_103_);}
	.st105{fill:url(#SVGID_104_);}
	.st106{fill:url(#SVGID_105_);}
	.st107{fill:url(#SVGID_106_);}
	.st108{fill:url(#SVGID_107_);}
	.st109{fill:url(#SVGID_108_);}
	.st110{fill:url(#SVGID_109_);}
	.st111{fill:url(#SVGID_110_);}
	.st112{fill:url(#SVGID_111_);}
	.st113{fill:url(#SVGID_112_);}
	.st114{fill:url(#SVGID_113_);}
	.st115{fill:url(#SVGID_114_);}
	.st116{fill:url(#SVGID_115_);}
	.st117{fill:url(#SVGID_116_);}
	.st118{fill:url(#SVGID_117_);}
	.st119{fill:url(#SVGID_118_);}
	.st120{fill:url(#SVGID_119_);}
	.st121{fill:url(#SVGID_120_);}
	.st122{fill:url(#SVGID_121_);}
	.st123{fill:url(#SVGID_122_);}
	.st124{fill:url(#SVGID_123_);}
	.st125{fill:url(#SVGID_124_);}
	.st126{fill:url(#SVGID_125_);}
	.st127{fill:url(#SVGID_126_);}
	.st128{fill:url(#SVGID_127_);}
	.st129{fill:url(#SVGID_128_);}
	.st130{fill:url(#SVGID_129_);}
	.st131{fill:url(#SVGID_130_);}
	.st132{fill:url(#SVGID_131_);}
	.st133{fill:url(#SVGID_132_);}
	.st134{fill:url(#SVGID_133_);}
	.st135{fill:url(#SVGID_134_);}
	.st136{fill:url(#SVGID_135_);}
	.st137{fill:url(#SVGID_136_);}
	.st138{fill:url(#SVGID_137_);}
	.st139{fill:url(#SVGID_138_);}
	.st140{fill:url(#SVGID_139_);}
	.st141{fill:url(#SVGID_140_);}
	.st142{fill:url(#SVGID_141_);}
	.st143{fill:url(#SVGID_142_);}
	.st144{fill:url(#SVGID_143_);}
	.st145{fill:url(#SVGID_144_);}
	.st146{fill:url(#SVGID_145_);}
	.st147{fill:url(#SVGID_146_);}
</style>
<g>
	<linearGradient id="SVGID_1_" gradientUnits="userSpaceOnUse" x1="959.7277" y1="1540.4486" x2="959.7277" y2="1436.5465">
		<stop  offset="0" style="stop-color:#EAEBEC"/>
		<stop  offset="0.8923" style="stop-color:#988D82"/>
	</linearGradient>
	<ellipse class="st0" cx="959.73" cy="1499.82" rx="813.34" ry="20.02"/>
	<g>
		<linearGradient id="SVGID_2_" gradientUnits="userSpaceOnUse" x1="1276.558" y1="-156.4337" x2="927.069" y2="915.6476">
			<stop  offset="0" style="stop-color:#FFFFFF"/>
			<stop  offset="0.9935" style="stop-color:#D3E9F0"/>
		</linearGradient>
		<path class="st1" d="M807.01,427.12c219.82-85.73,171.27-346.76,502.03-311.08s97.51,467.04,156.51,588.87
			c59,121.83,194.01,65.44,223.64,310.96c29.64,245.52-212.82,326.09-391.06,293.57c-178.24-32.52-258.51-67.79-399.65-25
			s-279.44,145.55-539.57,62.89s-37-331.81-54.72-447.61c-17.72-115.8-179.25-322.56-17.72-435.61S632.79,495.06,807.01,427.12z"/>
		<linearGradient id="SVGID_3_" gradientUnits="userSpaceOnUse" x1="1797.5619" y1="13.409" x2="1448.0729" y2="1085.4902">
			<stop  offset="0" style="stop-color:#FFFFFF"/>
			<stop  offset="0.9935" style="stop-color:#D3E9F0"/>
		</linearGradient>
		<path class="st2" d="M1501.67,694.71c19.98,48.23,116.15,73.98,150.11,64.16c33.96-9.82,12.23-69.25-29.89-136.67
			c-42.11-67.41-73.08-84.68-99.17-68.77C1495.99,569.74,1487.46,660.43,1501.67,694.71z"/>
	</g>
	<g>
		<g>
			
				<linearGradient id="SVGID_4_" gradientUnits="userSpaceOnUse" x1="89.2105" y1="1205.7799" x2="267.4971" y2="1198.6957" gradientTransform="matrix(1 0 -0.063 0.9975 85.7056 3.3718)">
				<stop  offset="0" style="stop-color:#CEC48B"/>
				<stop  offset="1" style="stop-color:#8C6224"/>
			</linearGradient>
			<polygon class="st3" points="317.12,911.58 279.64,1081.41 187.3,1499.82 158.19,1499.82 232.82,1175.67 256.88,1071.16 
				296.01,901.23 			"/>
			
				<linearGradient id="SVGID_5_" gradientUnits="userSpaceOnUse" x1="157.2849" y1="1275.8567" x2="322.5838" y2="1305.7678" gradientTransform="matrix(1 0 -0.063 0.9975 85.7056 3.3718)">
				<stop  offset="0" style="stop-color:#FFFFFF"/>
				<stop  offset="1" style="stop-color:#A17F57"/>
			</linearGradient>
			<path class="st4" d="M279.64,1081.41l-92.34,418.41h-15.72c17.06-72.73,74.58-319.26,70.95-320.26
				c-1.47-0.41-5.32-1.99-9.72-3.89l24.06-104.52L279.64,1081.41z"/>
			
				<linearGradient id="SVGID_6_" gradientUnits="userSpaceOnUse" x1="550.7839" y1="1559.1222" x2="485.2582" y2="1420.9868" gradientTransform="matrix(1 0 -0.063 0.9975 85.7056 3.3718)">
				<stop  offset="0" style="stop-color:#CEC48B"/>
				<stop  offset="1" style="stop-color:#8C6224"/>
			</linearGradient>
			<polygon class="st5" points="436.29,1499.82 407.17,1499.82 375.79,1167.34 366.52,1069.15 351.64,911.58 374.05,901.23 
				391.43,1068.32 			"/>
			
				<linearGradient id="SVGID_7_" gradientUnits="userSpaceOnUse" x1="321.4182" y1="1303.0885" x2="604.7877" y2="1232.2461" gradientTransform="matrix(1 0 -0.063 0.9975 85.7056 3.3718)">
				<stop  offset="0" style="stop-color:#FFFFFF"/>
				<stop  offset="1" style="stop-color:#A17F57"/>
			</linearGradient>
			<path class="st6" d="M436.29,1499.82h-12.75c-6.98-66.67-35.25-335.73-36.75-336.02c-0.94-0.19-6.04,1.72-11,3.55l-9.27-98.19
				c8.08-0.45,16.68-0.69,24.91-0.84L436.29,1499.82z"/>
			
				<linearGradient id="SVGID_8_" gradientUnits="userSpaceOnUse" x1="311.9857" y1="1268.0568" x2="311.9857" y2="1288.9733" gradientTransform="matrix(1 0 -0.063 0.9975 85.7056 3.3718)">
				<stop  offset="0" style="stop-color:#CEC48B"/>
				<stop  offset="1" style="stop-color:#8C6224"/>
			</linearGradient>
			<polygon class="st7" points="459.5,1269.31 454.7,1289.17 174.78,1289.17 177.18,1279.23 179.58,1269.31 			"/>
			
				<linearGradient id="SVGID_9_" gradientUnits="userSpaceOnUse" x1="306.8735" y1="1266.3531" x2="310.0221" y2="1337.1956" gradientTransform="matrix(1 0 -0.063 0.9975 85.7056 3.3718)">
				<stop  offset="0" style="stop-color:#FFFFFF"/>
				<stop  offset="1" style="stop-color:#A17F57"/>
			</linearGradient>
			<path class="st8" d="M450.22,1279.23c0,0-0.84,3.77-2.4,9.94H174.78l2.4-9.94H450.22z"/>
			
				<linearGradient id="SVGID_10_" gradientUnits="userSpaceOnUse" x1="454.8989" y1="1252.5386" x2="453.5214" y2="1263.1649" gradientTransform="matrix(1 0 -0.063 0.9975 85.7056 3.3718)">
				<stop  offset="0" style="stop-color:#CEC48B"/>
				<stop  offset="1" style="stop-color:#977E5A"/>
			</linearGradient>
			<path class="st9" d="M459.5,1269.3c4.76,0-0.8,19.87-4.8,19.87C448.74,1289.17,454.06,1269.3,459.5,1269.3z"/>
		</g>
		<g>
			<linearGradient id="SVGID_11_" gradientUnits="userSpaceOnUse" x1="276.4328" y1="848.4563" x2="370.0515" y2="1130.3765">
				<stop  offset="0" style="stop-color:#ABA39A"/>
				<stop  offset="0.8923" style="stop-color:#988D82"/>
			</linearGradient>
			<path class="st10" d="M493.14,994.88c-25.68,92.83-121.75,168.09-214.58,168.09s-147.27-75.25-121.59-168.09
				c25.68-92.83,121.75-168.08,214.58-168.08S518.82,902.05,493.14,994.88z"/>
			<linearGradient id="SVGID_12_" gradientUnits="userSpaceOnUse" x1="305.9449" y1="849.1186" x2="331.476" y2="1125.1738">
				<stop  offset="0" style="stop-color:#F3E7DA"/>
				<stop  offset="0.8923" style="stop-color:#E0CFBF"/>
			</linearGradient>
			<path class="st11" d="M486.41,982.95c-25.68,92.83-121.76,168.09-214.59,168.09c-28.56,0-53.5-7.13-73.58-19.71
				c-2.21-1.38-4.37-2.83-6.47-4.36c-21.73-15.73-36.94-38.36-43.78-65.35c-0.66-2.54-1.23-5.13-1.72-7.74
				c-4.09-21.55-3.05-45.58,3.96-70.92c25.68-92.83,121.76-168.08,214.58-168.08C457.64,814.87,512.08,890.12,486.41,982.95z"/>
			<linearGradient id="SVGID_13_" gradientUnits="userSpaceOnUse" x1="287.1512" y1="799.8361" x2="338.2211" y2="1099.8717">
				<stop  offset="0.1641" style="stop-color:#DFAB33"/>
				<stop  offset="0.9949" style="stop-color:#C74D2C"/>
			</linearGradient>
			<path class="st12" d="M444.85,982.95c-19.33,69.88-91.65,126.53-161.53,126.53s-110.86-56.65-91.53-126.53
				s91.65-126.53,161.53-126.53S464.18,913.07,444.85,982.95z"/>
			<linearGradient id="SVGID_14_" gradientUnits="userSpaceOnUse" x1="305.9422" y1="849.1188" x2="331.4734" y2="1125.1741">
				<stop  offset="0" style="stop-color:#F3E7DA"/>
				<stop  offset="0.8923" style="stop-color:#E0CFBF"/>
			</linearGradient>
			<path class="st13" d="M399.06,982.95c-12.34,44.59-58.48,80.74-103.08,80.74s-70.74-36.15-58.41-80.74
				c12.34-44.59,58.48-80.74,103.08-80.74S411.4,938.36,399.06,982.95z"/>
			<linearGradient id="SVGID_15_" gradientUnits="userSpaceOnUse" x1="287.1512" y1="799.8361" x2="338.2211" y2="1099.8717">
				<stop  offset="0.1641" style="stop-color:#DFAB33"/>
				<stop  offset="0.9949" style="stop-color:#C74D2C"/>
			</linearGradient>
			<path class="st14" d="M353.48,982.95c-5.37,19.42-25.47,35.16-44.89,35.16c-19.42,0-30.81-15.74-25.44-35.16
				c5.37-19.42,25.47-35.16,44.89-35.16C347.47,947.79,358.85,963.53,353.48,982.95z"/>
		</g>
		<linearGradient id="SVGID_16_" gradientUnits="userSpaceOnUse" x1="144.6317" y1="1173.9642" x2="312.7937" y2="994.801">
			<stop  offset="0" style="stop-color:#FFFFFF"/>
			<stop  offset="1" style="stop-color:#D1B17B"/>
		</linearGradient>
		<path class="st15" d="M321.11,982.79l-122.86,148.53c-2.21-1.38-4.37-2.83-6.47-4.36l122.87-148.62L321.11,982.79z"/>
		<g>
			<linearGradient id="SVGID_17_" gradientUnits="userSpaceOnUse" x1="178.2366" y1="792.8192" x2="158.5554" y2="814.0961">
				<stop  offset="0.1641" style="stop-color:#922F83"/>
				<stop  offset="0.9949" style="stop-color:#4C3D8F"/>
			</linearGradient>
			<path class="st16" d="M188.55,839.71c-0.84,0.81-1.63,1.49-2.26,2.03c-9.63,8.18-16.07,11.66-23.78,12.77
				c-7.73,1.1-52.24-43.78-50.66-48.19c1.58-4.41,45.89,14.48,50.71,10.07c0.77-0.71,1.15-2.34,1.26-4.59
				c0.59-11.92-6.33-41.2-3.15-41.2c3.78,0,39.55,43.81,40.18,50.32C201.39,826.49,193.56,835.03,188.55,839.71z"/>
			<linearGradient id="SVGID_18_" gradientUnits="userSpaceOnUse" x1="128.7763" y1="833.3625" x2="221.6858" y2="802.1562">
				<stop  offset="0.0923" style="stop-color:#FFFFFF"/>
				<stop  offset="1" style="stop-color:#7F338D"/>
			</linearGradient>
			<path class="st17" d="M188.55,839.71c-0.84,0.81-1.63,1.49-2.26,2.03c-9.63,8.18-16.07,11.66-23.78,12.77
				c-7.73,1.1-52.24-43.78-50.66-48.19c1.58-4.41,45.89,14.48,50.71,10.07c0.77-0.71,1.15-2.34,1.26-4.59
				C171.99,820.99,181.3,831.52,188.55,839.71z"/>
			<linearGradient id="SVGID_19_" gradientUnits="userSpaceOnUse" x1="313.1111" y1="782.8509" x2="234.3863" y2="891.3636">
				<stop  offset="0" style="stop-color:#D4E9EB"/>
				<stop  offset="1" style="stop-color:#3D5776"/>
			</linearGradient>
			<path class="st18" d="M319.26,984.53c-0.24,0.25-0.5,0.47-0.77,0.66c-2.34,1.69-5.41,1.21-5.41,1.21l-168.1-182.03l3.77-3.74
				l0.45-0.44l3.67-3.65l167.84,181.9C320.72,978.42,321.46,982.25,319.26,984.53z"/>
			<linearGradient id="SVGID_20_" gradientUnits="userSpaceOnUse" x1="272.156" y1="796.3624" x2="247.6875" y2="855.938">
				<stop  offset="0.1077" style="stop-color:#345D7E"/>
				<stop  offset="1" style="stop-color:#211E4C"/>
			</linearGradient>
			<path class="st19" d="M318.49,985.18c-2.34,1.69-5.41,1.21-5.41,1.21l-168.1-182.03l3.77-3.74L318.49,985.18z"/>
		</g>
	</g>
	<g>
		<g>
			<linearGradient id="SVGID_21_" gradientUnits="userSpaceOnUse" x1="1586.4492" y1="1129.894" x2="1614.7863" y2="1199.1621">
				<stop  offset="0" style="stop-color:#CDCEA7"/>
				<stop  offset="1" style="stop-color:#879B47"/>
			</linearGradient>
			<path class="st20" d="M1671.92,1496.18c-0.33,0.23-0.62,0.34-0.91,0.37c-1.16,0.11-2.14-1.12-2.98-3.45
				c-5.81-15.77-6.26-82.23-23.61-132.8c-20.3-59.18-44.13-135.17,6.1-146.09c0.22-0.06,0.44-0.1,0.68-0.15
				c34.02-6.91,66.35,40.72,65.74,109.19C1716.37,1389.61,1682.24,1489.35,1671.92,1496.18z"/>
			
				<linearGradient id="SVGID_22_" gradientUnits="userSpaceOnUse" x1="1760.9667" y1="1264.3665" x2="1684.6144" y2="1326.5503" gradientTransform="matrix(0.9926 0.1211 -0.1211 0.9926 175.8117 -182.0713)">
				<stop  offset="0" style="stop-color:#FFFFFF"/>
				<stop  offset="1" style="stop-color:#8E813A"/>
			</linearGradient>
			<path class="st21" d="M1671.92,1496.18c1.6-7.39,3.6-17.41,5.6-29.6c0-0.02,0-0.02,0-0.03c3.87-23.43,7.73-54.82,8.82-90.83
				c0.02-0.59,0.05-1.21,0.07-1.8c0.07-2.36,0.12-4.68,0.13-6.95c0.35-31.87-5.79-63.65-13.36-90.45
				c-7.94-28.17-17.47-50.84-22.67-62.31c0.22-0.06,0.44-0.1,0.68-0.15c34.02-6.91,66.35,40.72,65.74,109.19
				C1716.37,1389.61,1682.24,1489.35,1671.92,1496.18z"/>
			<linearGradient id="SVGID_23_" gradientUnits="userSpaceOnUse" x1="1594.7175" y1="1136.5923" x2="1619.1188" y2="1215.306">
				<stop  offset="0" style="stop-color:#FFFFFF"/>
				<stop  offset="1" style="stop-color:#354B29"/>
			</linearGradient>
			<path class="st22" d="M1671.22,1274.97c6.13,1.25,20.91,47.75,19.62,95.69c-1.29,47.94-19.84,125.88-19.84,125.88l-2.99-3.44
				c0,0,19.38-80.64,18.5-130.43S1666.17,1273.94,1671.22,1274.97z"/>
		</g>
		<g>
			<linearGradient id="SVGID_24_" gradientUnits="userSpaceOnUse" x1="1809.3881" y1="1234.7064" x2="1754.2885" y2="1385.8369">
				<stop  offset="0" style="stop-color:#CDCEA7"/>
				<stop  offset="1" style="stop-color:#879B47"/>
			</linearGradient>
			<path class="st23" d="M1785.54,1418.1c-31.77,47.55-98.04,83.13-111.33,78.76c-1.47-0.5-2.38-1.63-2.83-3.35
				c-4.09-15.84,32.86-80.17,42.03-118.48c10.15-42.44,37.41-75.61,69.9-69.98c0.44,0.07,0.87,0.15,1.3,0.25
				C1815.83,1312.28,1816.9,1371.2,1785.54,1418.1z"/>
			
				<linearGradient id="SVGID_25_" gradientUnits="userSpaceOnUse" x1="1847.5247" y1="1381.7545" x2="1741.2611" y2="1383.3287" gradientTransform="matrix(0.9926 0.1211 -0.1211 0.9926 175.8117 -182.0713)">
				<stop  offset="0" style="stop-color:#FFFFFF"/>
				<stop  offset="1" style="stop-color:#8E813A"/>
			</linearGradient>
			<path class="st24" d="M1785.54,1418.1c-31.77,47.55-98.04,83.13-111.33,78.76c0.04-0.03,0.09-0.06,0.13-0.1
				c19.54-16.13,34.04-30.83,46.22-45.09c28.84-33.66,42.83-66.5,52.48-97.32c7.21-22.92,10.4-41.21,11.57-49.05
				C1815.83,1312.28,1816.9,1371.2,1785.54,1418.1z"/>
			
				<linearGradient id="SVGID_26_" gradientUnits="userSpaceOnUse" x1="1778.2764" y1="1252.1735" x2="1746.7909" y2="1358.437" gradientTransform="matrix(0.9926 0.1211 -0.1211 0.9926 175.8117 -182.0713)">
				<stop  offset="0" style="stop-color:#FFFFFF"/>
				<stop  offset="1" style="stop-color:#354B29"/>
			</linearGradient>
			<path class="st25" d="M1771.46,1352.24c4.76-2.94-0.17,33.15-26.54,72.51c-26.36,39.35-70.72,72.09-70.72,72.09l-2.83-3.35
				c0,0,40.93-32.37,68.37-71.59C1767.2,1382.69,1768.47,1354.09,1771.46,1352.24z"/>
		</g>
	</g>
	<g>
		<linearGradient id="SVGID_27_" gradientUnits="userSpaceOnUse" x1="1278.4653" y1="1339.2559" x2="1212.3458" y2="1417.1824">
			<stop  offset="0" style="stop-color:#CDCEA7"/>
			<stop  offset="1" style="stop-color:#879B47"/>
		</linearGradient>
		<path class="st26" d="M1257.94,1494.05c-0.53,1.36-1.39,2.2-2.66,2.46c-11.3,2.26-62-33.5-83.25-75.58
			c-20.99-41.51-14.23-89.64,12.02-92.24c0.35-0.04,0.72-0.07,1.09-0.08c27.16-1.36,46.17,28.51,50.24,64.25
			C1239.05,1425.15,1262.87,1481.49,1257.94,1494.05z"/>
		<linearGradient id="SVGID_28_" gradientUnits="userSpaceOnUse" x1="1149.088" y1="1404.4744" x2="1249.8417" y2="1416.2815">
			<stop  offset="0" style="stop-color:#FFFFFF"/>
			<stop  offset="1" style="stop-color:#8E813A"/>
		</linearGradient>
		<path class="st27" d="M1255.29,1496.51c-11.3,2.26-62-33.5-83.25-75.58c-20.99-41.51-14.23-89.64,12.02-92.24
			c0.18,6.53,0.97,21.82,4.58,41.3c4.82,26.19,14.71,59.96,34.96,90.39c8.54,12.88,18.95,25.17,31.6,36.02
			C1255.23,1496.45,1255.26,1496.47,1255.29,1496.51z"/>
		<linearGradient id="SVGID_29_" gradientUnits="userSpaceOnUse" x1="1130.4666" y1="1281.1707" x2="1171.3977" y2="1353.5873">
			<stop  offset="0" style="stop-color:#FFFFFF"/>
			<stop  offset="1" style="stop-color:#354B29"/>
		</linearGradient>
		<path class="st28" d="M1190.13,1368.43c-3.6-2.88-3.17,27.15,14.48,62s50.68,66.07,50.68,66.07l2.65-2.46
			c0,0-30.27-30.58-48.81-65.42C1190.58,1393.78,1192.39,1370.24,1190.13,1368.43z"/>
	</g>
	<g>
		<g>
			<linearGradient id="SVGID_30_" gradientUnits="userSpaceOnUse" x1="308.0747" y1="1238.8799" x2="351.3673" y2="1294.7667">
				<stop  offset="0" style="stop-color:#CDCEA7"/>
				<stop  offset="1" style="stop-color:#879B47"/>
			</linearGradient>
			<path class="st29" d="M581.64,1493.84c-1.01,0.66-2.56,1.15-4.67,1.47c-0.16,0.04-0.32,0.06-0.49,0.08
				c-18.75,2.61-76.46-7.41-146.17-39.95c-73.61-34.37-105.82-81.28-88.37-104.71c0.27-0.37,0.56-0.73,0.86-1.09
				c20.95-25,82.52,0,115.22,25.58c29.89,23.38,117.16,97.28,123.96,115.14l0.01,0C582.63,1492.06,582.55,1493.25,581.64,1493.84z"
				/>
			<linearGradient id="SVGID_31_" gradientUnits="userSpaceOnUse" x1="325.6195" y1="1475.0149" x2="468.617" y2="1419.4048">
				<stop  offset="0" style="stop-color:#FFFFFF"/>
				<stop  offset="1" style="stop-color:#8E813A"/>
			</linearGradient>
			<path class="st30" d="M576.48,1495.4c-18.75,2.61-76.46-7.41-146.17-39.95c-73.61-34.37-105.82-81.28-88.37-104.71
				C366.99,1374.29,443.12,1439.05,576.48,1495.4z"/>
			<linearGradient id="SVGID_32_" gradientUnits="userSpaceOnUse" x1="328.4164" y1="1323.1061" x2="397.7485" y2="1375.8274">
				<stop  offset="0" style="stop-color:#FFFFFF"/>
				<stop  offset="1" style="stop-color:#354B29"/>
			</linearGradient>
			<path class="st31" d="M581.64,1493.84c-1.01,0.66-2.56,1.15-4.67,1.47c-15.02-7.26-53.8-20.59-113.52-53.36
				c-63.6-34.9-85.08-54.4-79.08-56.39c2.49-0.82,40.47,26.88,89.08,54.14c35.24,19.76,72.83,39.24,108.52,50.66l0.01,0
				C582.63,1492.06,582.55,1493.25,581.64,1493.84z"/>
		</g>
		<g>
			<linearGradient id="SVGID_33_" gradientUnits="userSpaceOnUse" x1="402.4379" y1="1200.3903" x2="543.3355" y2="1396.3875">
				<stop  offset="0" style="stop-color:#CDCEA7"/>
				<stop  offset="1" style="stop-color:#879B47"/>
			</linearGradient>
			<path class="st32" d="M609.15,1492.88l-0.01,0c-0.93,0.81-1.88,1.4-2.82,1.8c-18.73,7.78-120.9-46.35-159.37-91.84
				c-38.48-45.49-67.69-102.11-45.66-124.85c2.24-2.32,4.62-4.33,7.09-6.03c21.91-15.08,52.59-6.46,80.6,26.41
				c27.83,32.65,51.66,78.86,56.47,88.44c0.28,0.59,0.57,1.18,0.87,1.75c-3.31-9.84,1.06-49.29,25.49-53.3
				c1.25-0.21,2.48-0.4,3.69-0.58c22.56-3.34,38.87-0.87,46.84,54.57C630.11,1443.25,620.56,1483.05,609.15,1492.88z"/>
			<linearGradient id="SVGID_34_" gradientUnits="userSpaceOnUse" x1="350.5284" y1="1411.9985" x2="481.2484" y2="1388.1656">
				<stop  offset="0" style="stop-color:#FFFFFF"/>
				<stop  offset="1" style="stop-color:#8E813A"/>
			</linearGradient>
			<path class="st33" d="M609.14,1492.88c-0.93,0.81-1.88,1.4-2.82,1.8c-18.73,7.78-120.9-46.35-159.37-91.84
				c-38.48-45.49-67.69-102.11-45.66-124.85c2.24-2.32,4.62-4.33,7.09-6.03C409.25,1273.64,480.34,1409.71,609.14,1492.88z"/>
			<linearGradient id="SVGID_35_" gradientUnits="userSpaceOnUse" x1="364.4175" y1="1246.1849" x2="441.694" y2="1328.5168">
				<stop  offset="0" style="stop-color:#FFFFFF"/>
				<stop  offset="1" style="stop-color:#354B29"/>
			</linearGradient>
			<path class="st34" d="M431.99,1310.67c2.05-2.18,35.5,53.8,83.77,100.26c48.26,46.46,93.39,81.94,93.39,81.94l-5.08,2.92
				c0,0-57.74-50.57-95.12-83.28S427.19,1315.78,431.99,1310.67z"/>
			<linearGradient id="SVGID_36_" gradientUnits="userSpaceOnUse" x1="532.2103" y1="1284.2084" x2="579.8762" y2="1412.7617">
				<stop  offset="0" style="stop-color:#FFFFFF"/>
				<stop  offset="1" style="stop-color:#8E813A"/>
			</linearGradient>
			<path class="st35" d="M582.4,1423.53c-0.69-0.29-22.75-10-36.08-34.98c-3.31-9.84,1.06-49.29,25.49-53.3
				c1.25-0.21,2.48-0.4,3.69-0.58C575.5,1334.68,569.9,1380.6,582.4,1423.53z"/>
		</g>
	</g>
	<g>
		<g>
			<linearGradient id="SVGID_37_" gradientUnits="userSpaceOnUse" x1="948.168" y1="1648.5248" x2="942.2645" y2="1467.8767">
				<stop  offset="0" style="stop-color:#D4E9EB"/>
				<stop  offset="1" style="stop-color:#3D5776"/>
			</linearGradient>
			<path class="st36" d="M1135.25,1483.33c-0.26,0.36-14.49,1.23-36.63,2.39c-7.03,0.36-14.85,0.76-23.28,1.17
				c-88.15,4.35-242.48,10.92-242.48,10.92s-79.03-2.12-82.86-6.52c-3.84-4.38,4.63-17.87,12.3-22.27
				c7.69-4.38,160.57-26.56,160.57-26.56l-65.89-180.21L840,1215.79h211.28c0,0,82.73,236.26,83.97,240.78
				C1136.48,1461.11,1136.48,1481.69,1135.25,1483.33z"/>
			<linearGradient id="SVGID_38_" gradientUnits="userSpaceOnUse" x1="843.2144" y1="1469.2546" x2="1236.3699" y2="1143.396">
				<stop  offset="0" style="stop-color:#FFFFFF"/>
				<stop  offset="1" style="stop-color:#2A5678"/>
			</linearGradient>
			<path class="st37" d="M1135.25,1483.33c-0.26,0.36-14.49,1.23-36.63,2.39c-7.03,0.36-14.85,0.76-23.28,1.17
				c-5.12-43.51-21.01-130.15-68.51-170.35c-45.92-38.87-108.36-40.56-144.92-40.79L840,1215.79h211.28
				c0,0,82.73,236.26,83.97,240.78C1136.48,1461.11,1136.48,1481.69,1135.25,1483.33z"/>
			<linearGradient id="SVGID_39_" gradientUnits="userSpaceOnUse" x1="697.9469" y1="1576.391" x2="1016.7496" y2="1440.6046">
				<stop  offset="0" style="stop-color:#D4E9EB"/>
				<stop  offset="1" style="stop-color:#3D5776"/>
			</linearGradient>
			<path class="st38" d="M1098.62,1448.76v36.97c-63.85,3.33-193.58,8.97-244.54,11.17c-13.29,0.57-21.23,0.91-21.23,0.91
				s-79.02-2.13-82.86-6.52c-3.84-4.38,4.62-17.85,12.28-22.26c0.01-0.01,0.02-0.01,0.02-0.01c7.69-4.38,160.56-26.57,160.56-26.57
				L1098.62,1448.76z"/>
			<linearGradient id="SVGID_40_" gradientUnits="userSpaceOnUse" x1="788.2701" y1="1522.8452" x2="821.3299" y2="1444.9186">
				<stop  offset="0" style="stop-color:#D4E9EB"/>
				<stop  offset="1" style="stop-color:#3D5776"/>
			</linearGradient>
			<path class="st39" d="M856.27,1477.61c0,0-0.98,8.96-2.18,19.28c-13.29,0.57-21.23,0.91-21.23,0.91s-79.02-2.13-82.86-6.52
				c-3.84-4.38,4.62-17.85,12.28-22.26c0.01-0.01,0.02-0.01,0.02-0.01L856.27,1477.61z"/>
			<linearGradient id="SVGID_41_" gradientUnits="userSpaceOnUse" x1="925.1429" y1="1579.8156" x2="995.9853" y2="1471.1907">
				<stop  offset="0.1077" style="stop-color:#345D7E"/>
				<stop  offset="1" style="stop-color:#211E4C"/>
			</linearGradient>
			<path class="st40" d="M1135.25,1483.33c-1.23,1.65-302.39,14.47-302.39,14.47s3.68-16.39,23.41-20.19
				c9.13-1.76,242.35-25.97,242.35-28.85c0-2.88-82.45-232.96-82.45-232.96h35.12c0,0,82.73,236.26,83.97,240.78
				C1136.48,1461.11,1136.48,1481.69,1135.25,1483.33z"/>
		</g>
		<g>
			<linearGradient id="SVGID_42_" gradientUnits="userSpaceOnUse" x1="451.0741" y1="917.4495" x2="1563.3035" y2="917.4495">
				<stop  offset="0.1077" style="stop-color:#345D7E"/>
				<stop  offset="1" style="stop-color:#211E4C"/>
			</linearGradient>
			<path class="st41" d="M1562.14,630.52l-190.83,612.75c-2.65,8.5-9.47,14.82-17.78,16.97c-2.06,0.56-4.21,0.84-6.42,0.84H496.28
				c-4.69,0-9.02-1.25-12.71-3.41c-3.69-2.16-6.77-5.2-8.96-8.81c-13.04-20.17-19.56-33.97-19.56-33.97l-3.24-11.99l-0.74-2.75
				l18.14,3.16l10.08,1.76l0.48-1.51l183.16-588.12c3.29-10.6,13.11-17.81,24.2-17.81h843.33c3.31-13.15,7.05-25.7,8.82-23.61
				c3.59,4.21,18.06,28.3,22.37,40.02C1563.57,619.1,1563.92,624.83,1562.14,630.52z"/>
			<linearGradient id="SVGID_43_" gradientUnits="userSpaceOnUse" x1="451.8149" y1="1232.0087" x2="1353.5278" y2="1232.0087">
				<stop  offset="0.1077" style="stop-color:#345D7E"/>
				<stop  offset="1" style="stop-color:#211E4C"/>
			</linearGradient>
			<path class="st42" d="M1353.53,1260.25c-2.06,0.56-4.21,0.84-6.42,0.84H496.28c-4.69,0-9.02-1.25-12.71-3.41
				c-3.69-2.16-6.77-5.2-8.96-8.81c-13.04-20.17-19.56-33.97-19.56-33.97l-3.24-11.99l17.4,0.41l10.55,0.25l859.07,20.18
				L1353.53,1260.25z"/>
			<linearGradient id="SVGID_44_" gradientUnits="userSpaceOnUse" x1="1101.1108" y1="494.4195" x2="867.3329" y2="1396.4718">
				<stop  offset="0" style="stop-color:#D4E9EB"/>
				<stop  offset="1" style="stop-color:#3D5776"/>
			</linearGradient>
			<path class="st43" d="M1542.49,595.59l-160.88,516.54l-30.12,96.71c-3.26,10.48-12.98,17.63-23.96,17.63H476.2
				c-16.92,0-29-16.4-23.97-32.56l25.47-81.78l165.52-531.47c3.27-10.48,12.99-17.63,23.97-17.63h851.34
				C1535.45,563.02,1547.52,579.42,1542.49,595.59z"/>
			<linearGradient id="SVGID_45_" gradientUnits="userSpaceOnUse" x1="1123.3121" y1="194.7392" x2="1020.5804" y2="793.4172">
				<stop  offset="0" style="stop-color:#D4E9EB"/>
				<stop  offset="1" style="stop-color:#3D5776"/>
			</linearGradient>
			<path class="st44" d="M1542.49,595.59l-81.59,262.79l-78.15,251.71l-905.06,2.03l151.02-484.92l14.5-46.56
				c3.27-10.48,12.99-17.63,23.97-17.63h851.34C1535.45,563.02,1547.52,579.42,1542.49,595.59z"/>
			<linearGradient id="SVGID_46_" gradientUnits="userSpaceOnUse" x1="713.1169" y1="630.1266" x2="701.9002" y2="522.092">
				<stop  offset="0" style="stop-color:#FFFFFF"/>
				<stop  offset="1" style="stop-color:#557C95"/>
			</linearGradient>
			<path class="st45" d="M790.24,563.02c0,0-5.51,11.85-33.06,17.83c-27.56,5.97-85.8,6.18-90.73,8.15
				c-3.06,1.22-23.05,22.37-37.74,38.21l14.5-46.56c3.27-10.48,12.99-17.63,23.97-17.63H790.24z"/>
			<linearGradient id="SVGID_47_" gradientUnits="userSpaceOnUse" x1="1277.0859" y1="565.5477" x2="762.298" y2="1139.3708">
				<stop  offset="0" style="stop-color:#FFFFFF"/>
				<stop  offset="0.8923" style="stop-color:#A3C8E0"/>
			</linearGradient>
			<path class="st46" d="M1461.22,638.91l-12.91,41.47l-132.63,425.87c-0.72,2.29-2.83,3.84-5.22,3.84H557.05
				c-3.69,0-6.31-3.57-5.22-7.08l131.63-422.63l2.03-6.52l14.6-46.89c2.62-8.38,10.37-14.09,19.16-14.09h722.82
				C1455.59,612.88,1465.24,625.98,1461.22,638.91z"/>
			<g>
				<linearGradient id="SVGID_48_" gradientUnits="userSpaceOnUse" x1="1053.9552" y1="470.4977" x2="973.6666" y2="803.4594">
					<stop  offset="0" style="stop-color:#FFFFFF"/>
					<stop  offset="0.8923" style="stop-color:#98C4E0"/>
				</linearGradient>
				<path class="st47" d="M1250.89,1111.27H554.93c-3.68,0-6.3-3.58-5.22-7.08l77.53-248.93l56.13-180.22
					c33.9-3.85,67.45-1.92,86.38,14.76c47.9,42.21-7.49,91.63-9.02,93c1.88-0.4,82.51-17.39,100.4,42.82
					c18.11,60.91-47.74,96.31-47.74,96.31s45.27-7.41,60.91,18.94c15.64,26.34,4.94,50.22,4.94,50.22l118.13,18.1
					c0,0,27.58-69.97,81.91-56.79c53.75,13.02,34.21,65.51,33.77,66.66c1.09-0.98,50.66-44.83,92.19-6.58
					c41.43,38.18,1.07,72.37,0.02,73.25c0.79-0.24,24.49-7.18,38.66,5.37C1250.25,1096.72,1251.49,1104.43,1250.89,1111.27z"/>
				<linearGradient id="SVGID_49_" gradientUnits="userSpaceOnUse" x1="1059.4556" y1="743.5904" x2="646.2084" y2="1135.5848">
					<stop  offset="0" style="stop-color:#FFFFFF"/>
					<stop  offset="0.8923" style="stop-color:#98C4E0"/>
				</linearGradient>
				<path class="st48" d="M986.33,1111.27H554.93c-3.68,0-6.3-3.58-5.22-7.08l77.53-248.93c20.78-1.29,47.18,2.17,66.19,22.42
					c36.2,38.56,6.29,91.01,6.29,91.01s26.77-2.95,36.99,13.24c10.02,15.85,0.41,29.01,0.01,29.55c0.96-0.41,50.77-22.04,92.08,5.38
					c41.73,27.69,32.46,67.83,32.46,67.83s27.69-18.89,49.97-10.24c22.27,8.67,23.93,25.2,23.93,25.2s28.24-7.88,39.27-3.15
					C979.43,1098.64,983.44,1104.98,986.33,1111.27z"/>
				<linearGradient id="SVGID_50_" gradientUnits="userSpaceOnUse" x1="1388.9532" y1="551.2803" x2="1308.6653" y2="884.2394">
					<stop  offset="0" style="stop-color:#FFFFFF"/>
					<stop  offset="0.8923" style="stop-color:#98C4E0"/>
				</linearGradient>
				<path class="st49" d="M1306.71,1003.18c-2.17,14.23-15.9,25.77-30.66,25.77s-24.96-11.54-22.79-25.77
					c2.17-14.23,15.9-25.77,30.66-25.77S1308.89,988.95,1306.71,1003.18z"/>
				<linearGradient id="SVGID_51_" gradientUnits="userSpaceOnUse" x1="957.7595" y1="447.3044" x2="877.4715" y2="780.2636">
					<stop  offset="0" style="stop-color:#FFFFFF"/>
					<stop  offset="0.8923" style="stop-color:#98C4E0"/>
				</linearGradient>
				<path class="st50" d="M909.54,747.42c-2.44,12.86-15.23,23.28-28.57,23.28s-22.17-10.42-19.73-23.28
					c2.44-12.86,15.23-23.28,28.57-23.28S911.98,734.56,909.54,747.42z"/>
				<linearGradient id="SVGID_52_" gradientUnits="userSpaceOnUse" x1="1360.2668" y1="544.363" x2="1279.9789" y2="877.3221">
					<stop  offset="0" style="stop-color:#FFFFFF"/>
					<stop  offset="0.8923" style="stop-color:#98C4E0"/>
				</linearGradient>
				<path class="st51" d="M1279.43,938.18c-1.15,7.52-8.41,13.62-16.21,13.62s-13.19-6.1-12.04-13.62
					c1.15-7.52,8.41-13.62,16.21-13.62S1280.58,930.66,1279.43,938.18z"/>
				<linearGradient id="SVGID_53_" gradientUnits="userSpaceOnUse" x1="1040.884" y1="467.3486" x2="960.5959" y2="800.3078">
					<stop  offset="0" style="stop-color:#FFFFFF"/>
					<stop  offset="0.8923" style="stop-color:#98C4E0"/>
				</linearGradient>
				<path class="st52" d="M952.59,907.39c-1.45,9.49-10.6,17.18-20.44,17.18s-16.64-7.69-15.19-17.18
					c1.45-9.49,10.6-17.18,20.44-17.18C947.24,890.21,954.04,897.9,952.59,907.39z"/>
			</g>
			<linearGradient id="SVGID_54_" gradientUnits="userSpaceOnUse" x1="866.5554" y1="1109.0242" x2="910.2415" y2="1253.0703">
				<stop  offset="0" style="stop-color:#FFFFFF"/>
				<stop  offset="0.8923" style="stop-color:#A3C8E0"/>
			</linearGradient>
			<path class="st53" d="M910.32,1168.29c-3.79,14.25-18.41,25.79-32.65,25.79s-22.72-11.55-18.93-25.79
				c3.79-14.25,18.41-25.79,32.65-25.79C905.63,1142.49,914.11,1154.04,910.32,1168.29z"/>
			<path class="st54" d="M1460.28,638.91l-12.91,41.47H682.52l2.03-6.52l14.6-46.89c2.62-8.38,10.37-14.09,19.16-14.09h722.82
				C1454.64,612.88,1464.29,625.98,1460.28,638.91z"/>
			<linearGradient id="SVGID_55_" gradientUnits="userSpaceOnUse" x1="1253.113" y1="1423.5162" x2="1049.4514" y2="968.3768">
				<stop  offset="0.1077" style="stop-color:#345D7E"/>
				<stop  offset="1" style="stop-color:#211E4C"/>
			</linearGradient>
			<path class="st55" d="M1457.84,625.07c-1.26-0.26-2.6-0.39-3.96-0.39H731.07c-8.8,0-16.55,5.71-19.16,14.1l-14.61,46.89
				l-2.03,6.53l-130.53,419.08h-9.81c-3.68,0-6.3-3.58-5.22-7.08l131.63-422.62l2.03-6.53l14.61-46.89
				c2.61-8.38,10.37-14.1,19.16-14.1h722.82C1447.94,614.05,1454.59,618.65,1457.84,625.07z"/>
			<path class="st56" d="M742.44,646.36L742.44,646.36c-3.39,8.01,2.48,16.88,11.18,16.88h630.42c4.51,0,8.65-2.5,10.75-6.49v0
				c4.25-8.09-1.62-17.79-10.75-17.79H753.62C748.74,638.95,744.34,641.87,742.44,646.36z"/>
		</g>
		<g>
			<linearGradient id="SVGID_56_" gradientUnits="userSpaceOnUse" x1="967.1406" y1="908.8605" x2="958.8757" y2="935.4264">
				<stop  offset="0.0923" style="stop-color:#B3564F"/>
				<stop  offset="1" style="stop-color:#AD2E34"/>
			</linearGradient>
			<path class="st57" d="M1031.21,1009.78H859.4c-23.43,0-39.58-21.62-31.19-41.75v0c4.96-11.88,17.36-19.72,31.19-19.72h171.81
				c23.43,0,39.58,21.62,31.19,41.75v0C1057.44,1001.94,1045.04,1009.78,1031.21,1009.78z"/>
			<linearGradient id="SVGID_57_" gradientUnits="userSpaceOnUse" x1="942.2299" y1="965.0463" x2="959.9407" y2="1042.9741">
				<stop  offset="0.0923" style="stop-color:#D1645C"/>
				<stop  offset="1" style="stop-color:#CB363D"/>
			</linearGradient>
			<path class="st58" d="M1058.31,978.54c-2.44,5.94-6.72,10.87-12.1,14.31c-5.37,3.45-11.84,5.41-18.67,5.41H858.05
				c-23.02,0-38.93-21.44-30.86-41.5c0.02-0.08,0.06-0.17,0.09-0.25c2.44-5.94,6.73-10.87,12.1-14.31
				c5.37-3.45,11.84-5.41,18.67-5.41h169.49c18.09,0,31.78,13.25,32.91,28.64C1060.77,969.72,1060.12,974.16,1058.31,978.54z"/>
			<linearGradient id="SVGID_58_" gradientUnits="userSpaceOnUse" x1="945.9257" y1="938.0704" x2="935.8896" y2="1032.5269">
				<stop  offset="0" style="stop-color:#FFFFFF"/>
				<stop  offset="1" style="stop-color:#EE645B"/>
			</linearGradient>
			<path class="st59" d="M1058.31,978.54c-2.44,5.94-6.72,10.87-12.1,14.31c-5.37,3.45-11.84,5.41-18.67,5.41H858.05
				c-23.02,0-38.93-21.44-30.86-41.5c3.28,5.76,11.62,13.41,32.72,13.41h175.93c8.96,0,17.46-2.09,24.62-4.73
				C1060.77,969.72,1060.12,974.16,1058.31,978.54z"/>
			<g>
				<path class="st56" d="M870.19,954.5h2.63l-7.96,18.14h8.69l-0.97,2.2h-11.32L870.19,954.5z"/>
				<path class="st56" d="M890.67,968.44l-4.92,6.4h-2.72l15.84-20.35h3.17l-1.98,20.35h-2.81l0.63-6.4H890.67z M898.24,966.39
					l0.58-5.86c0.13-1.33,0.36-2.54,0.57-3.71h-0.06c-0.83,1.21-1.71,2.45-2.64,3.68l-4.57,5.89H898.24z"/>
				<path class="st56" d="M922.81,954.5l-5.28,12.04c-2,4.56-0.83,6.49,1.89,6.49c3.02,0,5.83-1.99,7.8-6.49l5.28-12.04h2.66
					l-5.2,11.86c-2.74,6.25-7.16,8.81-11.56,8.81c-4.17,0-6.26-2.38-3.49-8.69l5.26-11.98H922.81z"/>
				<path class="st56" d="M939.85,974.84l8.93-20.35h2.87l2,10.29c0.46,2.38,0.7,4.53,0.75,6.61l0.07-0.03
					c0.95-2.72,1.98-5.19,3.37-8.36l3.73-8.51h2.47l-8.93,20.35h-2.66l-1.93-10.32c-0.43-2.26-0.76-4.59-0.82-6.79l-0.1,0.03
					c-0.97,2.57-1.99,5.01-3.47,8.39l-3.81,8.69H939.85z"/>
				<path class="st56" d="M983.29,974.18c-1.18,0.48-3.32,0.97-5.8,0.97c-5.74,0-8.46-3.62-5.54-10.29
					c2.79-6.37,9-10.69,15.31-10.69c2.54,0,3.9,0.54,4.43,0.91l-1.57,2.14c-0.78-0.48-2.04-0.85-3.73-0.85
					c-4.77,0-9.28,3.05-11.62,8.39c-2.19,4.98-0.72,8.18,4.23,8.18c1.6,0,3.38-0.33,4.66-0.84L983.29,974.18z"/>
				<path class="st56" d="M1006.9,954.5l-3.73,8.51h9.84l3.73-8.51h2.66l-8.93,20.35h-2.66l4.18-9.54h-9.84l-4.18,9.54h-2.63
					l8.93-20.35H1006.9z"/>
			</g>
		</g>
	</g>
	<g>
		<linearGradient id="SVGID_59_" gradientUnits="userSpaceOnUse" x1="1056.8176" y1="863.5811" x2="1389.7601" y2="596.1644">
			<stop  offset="0" style="stop-color:#FFFFFF"/>
			<stop  offset="1" style="stop-color:#94AABB"/>
		</linearGradient>
		<path class="st60" d="M1542.49,595.59l-81.59,262.79l-450.24-187.28l22.74-108.07h485.12
			C1535.45,563.02,1547.52,579.42,1542.49,595.59z"/>
		<linearGradient id="SVGID_60_" gradientUnits="userSpaceOnUse" x1="1427.6127" y1="280.1155" x2="1349.9229" y2="450.3719">
			<stop  offset="0.1641" style="stop-color:#922F83"/>
			<stop  offset="0.9949" style="stop-color:#4C3D8F"/>
		</linearGradient>
		<path class="st61" d="M1539.28,568.45c0,0.8-0.2,2.04-0.6,3.69c-6.13,25.69-58.09,148.97-82.77,206.89v0.02
			c-3.86,9.05-7.05,16.49-9.3,21.73c-2.06,4.79-7.41,7.27-12.4,5.73l-416.48-128.31c-5.61-1.74-8.62-7.82-6.58-13.32
			c3.03-8.16,7.7-20.75,13.37-35.9l0.02-0.02c25.26-67.65,70.13-186.51,75.24-191.63c7.18-7.18,235.05-118.6,301.42-94.46
			C1466.55,366.64,1539.28,551.04,1539.28,568.45z"/>
		<g>
			<linearGradient id="SVGID_61_" gradientUnits="userSpaceOnUse" x1="1452.2256" y1="283.7328" x2="1253.8573" y2="695.8981">
				<stop  offset="0" style="stop-color:#F3E7DA"/>
				<stop  offset="0.8923" style="stop-color:#E0CFBF"/>
			</linearGradient>
			<path class="st62" d="M1641.22,406.08c0,0-89.25,60.38-136.19,160.3c-1.55,3.3-3.1,6.63-4.62,9.97
				c-44.15,97.21-70.34,201.35-70.34,201.35l-382.29-115.98c0,0,21.73-81.45,56.8-166.68c0.01,0,0.01,0,0.01,0
				c7.25-17.63,15.08-35.43,23.41-52.7c6.51-13.56,13.35-26.77,20.45-39.33c59.93-106.04,126.45-150.1,126.45-150.1
				s140.17,23.83,206.25,55.32c65.98,31.46,155.21,93.06,160.05,97.83C1641.21,406.08,1641.22,406.08,1641.22,406.08z"/>
			<linearGradient id="SVGID_62_" gradientUnits="userSpaceOnUse" x1="1317.7793" y1="249.5514" x2="1359.1036" y2="689.2427">
				<stop  offset="0" style="stop-color:#FFFFFF"/>
				<stop  offset="0.8923" style="stop-color:#F3E2D4"/>
			</linearGradient>
			<path class="st63" d="M1641.22,406.08c0,0-45.22,30.59-88.2,84.25c-17.41,21.73-34.46,47.26-47.99,76.05
				c-1.55,3.3-3.1,6.63-4.62,9.97c-44.15,97.21-70.34,201.35-70.34,201.35l-382.29-115.98c0,0,0.91-3.44,2.68-9.63
				c6.81-23.98,26.25-89.32,54.12-157.05c0.01,0,0.01,0,0.01,0c8.11-5.38,16.23-9.72,24.26-12.68
				c73.42-27.15,161.07,22.76,235.16-5.69c74.08-28.45,44.08-55.33,136.4-76.22c91.28-20.66,139.72,5.04,140.79,5.61
				C1641.21,406.08,1641.22,406.08,1641.22,406.08z"/>
			<linearGradient id="SVGID_63_" gradientUnits="userSpaceOnUse" x1="1292.4817" y1="397.2844" x2="1307.3584" y2="732.8383">
				<stop  offset="0" style="stop-color:#FFFFFF"/>
				<stop  offset="0.8923" style="stop-color:#F3E2D4"/>
			</linearGradient>
			<path class="st64" d="M1553.03,490.33c-17.41,21.73-34.46,47.26-47.99,76.05c-1.55,3.3-3.1,6.63-4.62,9.97
				c-44.15,97.21-70.34,201.35-70.34,201.35l-382.29-115.98c0,0,0.91-3.44,2.68-9.63c18.71-24.16,55.59-55.55,122.49-75.11
				c74.8-21.87,104.36-6.5,135.32-3.78c30.95,2.71,59.05-13,99.98-51.54C1449.18,483.11,1516.1,484.16,1553.03,490.33z"/>
			<g>
				<linearGradient id="SVGID_64_" gradientUnits="userSpaceOnUse" x1="1454.8495" y1="181.8098" x2="1337.4883" y2="459.5095">
					<stop  offset="0" style="stop-color:#CAC0B6"/>
					<stop  offset="0.8923" style="stop-color:#B7A99C"/>
				</linearGradient>
				<path class="st65" d="M1180.43,423.45l-0.76,1.91c-1.61,4.02,0.38,8.57,4.42,10.13l281.85,108.35c3.81,1.46,8.09-0.27,9.82-3.96
					l0.6-1.28c1.9-4.07-0.04-8.9-4.23-10.52L1190.44,419.1C1186.48,417.56,1182.01,419.5,1180.43,423.45z"/>
				<linearGradient id="SVGID_65_" gradientUnits="userSpaceOnUse" x1="1452.3235" y1="180.7422" x2="1334.9623" y2="458.4419">
					<stop  offset="0" style="stop-color:#CAC0B6"/>
					<stop  offset="0.8923" style="stop-color:#B7A99C"/>
				</linearGradient>
				<path class="st66" d="M1160.61,463.32l-0.76,1.91c-1.61,4.02,0.38,8.57,4.42,10.13l281.85,108.35c3.81,1.46,8.09-0.27,9.82-3.96
					l0.6-1.28c1.9-4.07-0.04-8.9-4.23-10.52l-281.68-108.98C1166.65,457.43,1162.19,459.37,1160.61,463.32z"/>
				<linearGradient id="SVGID_66_" gradientUnits="userSpaceOnUse" x1="1454.2599" y1="181.5606" x2="1336.8987" y2="459.2603">
					<stop  offset="0" style="stop-color:#CAC0B6"/>
					<stop  offset="0.8923" style="stop-color:#B7A99C"/>
				</linearGradient>
				<path class="st67" d="M1145.39,504.72l-0.76,1.91c-1.61,4.02,0.38,8.57,4.42,10.13l281.85,108.35c3.81,1.46,8.09-0.27,9.82-3.96
					l0.6-1.28c1.9-4.07-0.04-8.9-4.23-10.52L1155.4,500.37C1151.43,498.83,1146.97,500.78,1145.39,504.72z"/>
				<linearGradient id="SVGID_67_" gradientUnits="userSpaceOnUse" x1="1456.1963" y1="182.3789" x2="1338.8352" y2="460.0787">
					<stop  offset="0" style="stop-color:#CAC0B6"/>
					<stop  offset="0.8923" style="stop-color:#B7A99C"/>
				</linearGradient>
				<path class="st68" d="M1130.18,546.13l-0.76,1.91c-1.61,4.02,0.38,8.57,4.42,10.13l281.85,108.35c3.81,1.46,8.09-0.27,9.82-3.96
					l0.6-1.28c1.9-4.07-0.04-8.9-4.23-10.52l-281.68-108.98C1136.22,540.24,1131.76,542.18,1130.18,546.13z"/>
			</g>
			<linearGradient id="SVGID_68_" gradientUnits="userSpaceOnUse" x1="1435.7109" y1="173.7214" x2="1318.3497" y2="451.4212">
				<stop  offset="0" style="stop-color:#CAC0B6"/>
				<stop  offset="0.8923" style="stop-color:#B7A99C"/>
			</linearGradient>
			<path class="st69" d="M1267.56,407.84L1267.56,407.84c-1.89,4.33,0.25,9.36,4.67,11.01l104.07,38.82
				c4.08,1.52,8.64-0.39,10.41-4.37l0.91-2.04c1.95-4.4-0.26-9.53-4.8-11.12l-104.98-36.78
				C1273.77,401.93,1269.29,403.89,1267.56,407.84z"/>
			<g>
				<linearGradient id="SVGID_69_" gradientUnits="userSpaceOnUse" x1="1456.1245" y1="182.3486" x2="1338.7633" y2="460.0483">
					<stop  offset="0" style="stop-color:#CAC0B6"/>
					<stop  offset="0.8923" style="stop-color:#B7A99C"/>
				</linearGradient>
				<path class="st70" d="M1381.88,400.57c-6.64,1.43-12.72,1.14-19.5-0.45c-16.6-3.9-26.23-18.56-19.13-36.72
					c7.62-19.48,28.68-32.91,51.15-27.63c17.61,4.14,24.94,18.46,18.77,34.26c-5.55,14.18-17.31,20.51-26.82,18.27
					c-4.05-0.95-6.8-4.39-4.24-10.08l-0.4-0.09c-5.73,4.75-11.46,6.39-17.53,4.97c-5.87-1.38-9.19-7.01-6.27-14.49
					c4.59-11.73,18.69-20.08,32.76-16.77c4.35,1.02,7.87,2.78,10.05,4.53l-10.14,16.31c-4.33,6.83-4.41,10.42-1.11,11.31
					c5.12,1.31,13.41-3.77,17.7-14.73c5.36-13.71,0.4-25.62-15.28-29.31c-16.5-3.88-35.14,5.06-42.65,24.25
					c-6.18,15.79,1.05,28.13,16.03,31.65c5.77,1.36,11.58,1.48,16.58,0.28L1381.88,400.57z M1392.29,358.41
					c-0.9-0.52-2.47-1.3-4.8-1.85c-8.91-2.09-19.16,4.06-22.75,13.24c-1.63,4.16-0.59,7.71,3.87,8.76
					c5.87,1.38,13.97-4.36,17.38-9.96L1392.29,358.41z"/>
			</g>
			<linearGradient id="SVGID_70_" gradientUnits="userSpaceOnUse" x1="1296.3433" y1="393.649" x2="1263.2821" y2="728.6686">
				<stop  offset="0" style="stop-color:#FFFFFF"/>
				<stop  offset="0.8923" style="stop-color:#BEAA9D"/>
			</linearGradient>
			<path class="st71" d="M1500.42,576.35c-44.15,97.21-70.35,201.35-70.35,201.35l-382.28-115.97c0,0,31.66-118.63,80.22-219.38
				l68.09,141.87c0,0,74.88-8.59,81.75-7.05s74.22,55.35,74.22,55.35L1500.42,576.35z"/>
		</g>
		<linearGradient id="SVGID_71_" gradientUnits="userSpaceOnUse" x1="1323.936" y1="476.2138" x2="1257.8137" y2="669.0704">
			<stop  offset="0.1641" style="stop-color:#B83BA5"/>
			<stop  offset="0.9949" style="stop-color:#604DB5"/>
		</linearGradient>
		<path class="st72" d="M1538.68,572.14c-6.13,25.69-58.1,149-82.77,206.9c-3.86,9.05-7.05,16.49-9.3,21.73
			c-2.06,4.79-7.41,7.27-12.4,5.73l-416.48-128.31c-5.61-1.74-8.62-7.82-6.58-13.32c3.03-8.16,7.71-20.75,13.38-35.91
			c25.26-67.65,70.13-186.51,75.24-191.63c5.06,0.57,44.41,71.86,80.72,137.01c29.83,53.51,57.63,102.9,62.71,105.57
			c4.96,2.61,61.51-18.3,123.86-42.4C1446.23,606.93,1534.72,571.24,1538.68,572.14z"/>
		<linearGradient id="SVGID_72_" gradientUnits="userSpaceOnUse" x1="1287.3204" y1="554.1716" x2="1238.8307" y2="708.457">
			<stop  offset="0" style="stop-color:#FFFFFF"/>
			<stop  offset="1" style="stop-color:#8746B5"/>
		</linearGradient>
		<path class="st73" d="M1455.91,779.04l-431.37-150.09l155.96-54.61c29.83,53.51,57.63,102.9,62.71,105.57
			c4.96,2.61,61.51-18.3,123.86-42.4L1455.91,779.04z"/>
		<linearGradient id="SVGID_73_" gradientUnits="userSpaceOnUse" x1="1272.6228" y1="607.6161" x2="1198.7863" y2="823.6157">
			<stop  offset="0.1641" style="stop-color:#B83BA5"/>
			<stop  offset="0.9949" style="stop-color:#604DB5"/>
		</linearGradient>
		<path class="st74" d="M1455.91,779.03v0.02c-3.86,9.05-7.05,16.49-9.3,21.73c-2.06,4.79-7.41,7.27-12.4,5.73l-416.48-128.31
			c-5.61-1.74-8.62-7.82-6.58-13.32c3.03-8.16,7.7-20.75,13.37-35.9l0.02-0.02c9.77-11.22,226.09-51.79,250.36-45.64
			C1299.14,589.46,1457.21,766.04,1455.91,779.03z"/>
	</g>
	<g>
		<g>
			<linearGradient id="SVGID_74_" gradientUnits="userSpaceOnUse" x1="1723.4889" y1="751.2951" x2="1800.3336" y2="932.1759">
				<stop  offset="0.1641" style="stop-color:#922F83"/>
				<stop  offset="0.9949" style="stop-color:#4C3D8F"/>
			</linearGradient>
			<path class="st75" d="M1858.69,903.32h-210.47c-3.86,0-7-3.13-7-7v-149c0-3.86,3.13-7,7-7h210.47c3.86,0,7,3.13,7,7v149
				C1865.68,900.19,1862.55,903.32,1858.69,903.32z"/>
			<linearGradient id="SVGID_75_" gradientUnits="userSpaceOnUse" x1="1665.9696" y1="962.1261" x2="1685.4513" y2="932.6085">
				<stop  offset="0.1641" style="stop-color:#922F83"/>
				<stop  offset="0.9949" style="stop-color:#4C3D8F"/>
			</linearGradient>
			<path class="st76" d="M1673.77,903.32l-13.21,41.92c-0.97,3.06,2.44,5.65,5.13,3.89l70.1-45.81H1673.77z"/>
		</g>
		<g>
			<linearGradient id="SVGID_76_" gradientUnits="userSpaceOnUse" x1="1752.1449" y1="878.147" x2="1752.1449" y2="830.2701">
				<stop  offset="0" style="stop-color:#F3E7DA"/>
				<stop  offset="0.8923" style="stop-color:#E0CFBF"/>
			</linearGradient>
			<path class="st77" d="M1809.25,789.28l0.25,58.51c0.02,4.47-3.59,8.11-8.06,8.13l-98.26,0.42c-4.47,0.02-8.11-3.59-8.13-8.06
				l-0.25-58.51c0-0.87,0.13-1.71,0.39-2.5c1.03-3.26,4.07-5.61,7.67-5.63l98.26-0.42c3.61-0.02,6.66,2.33,7.72,5.58
				C1809.11,787.57,1809.24,788.41,1809.25,789.28z"/>
			<linearGradient id="SVGID_77_" gradientUnits="userSpaceOnUse" x1="1747.6516" y1="776.7661" x2="1768.4659" y2="825.7599">
				<stop  offset="0.1641" style="stop-color:#922F83"/>
				<stop  offset="0.9949" style="stop-color:#4C3D8F"/>
			</linearGradient>
			<path class="st78" d="M1695.18,787.26c0,0,54.4,43.86,58.27,43.86c3.87,0,55.39-44.32,55.39-44.32L1695.18,787.26z"/>
			<linearGradient id="SVGID_78_" gradientUnits="userSpaceOnUse" x1="1752.2673" y1="789.8795" x2="1755.8094" y2="829.2364">
				<stop  offset="0" style="stop-color:#F3E7DA"/>
				<stop  offset="0.8923" style="stop-color:#E0CFBF"/>
			</linearGradient>
			<path class="st79" d="M1808.84,786.79c-17.83,12.13-51.68,34.72-56.67,34.74c-4.99,0.02-39.06-22.28-56.98-34.28
				c1.03-3.26,4.07-5.61,7.67-5.63l98.26-0.42C1804.72,781.2,1807.78,783.54,1808.84,786.79z"/>
			<linearGradient id="SVGID_79_" gradientUnits="userSpaceOnUse" x1="1807.7368" y1="775.6059" x2="1814.821" y2="806.8946">
				<stop  offset="0.1641" style="stop-color:#DFAB33"/>
				<stop  offset="0.9949" style="stop-color:#C74D2C"/>
			</linearGradient>
			<circle class="st80" cx="1809" cy="781.17" r="16.36"/>
		</g>
	</g>
	<g>
		<g>
			<linearGradient id="SVGID_80_" gradientUnits="userSpaceOnUse" x1="509.4911" y1="389.8418" x2="480.9573" y2="348.9106">
				<stop  offset="0.1641" style="stop-color:#922F83"/>
				<stop  offset="0.9949" style="stop-color:#4C3D8F"/>
			</linearGradient>
			<path class="st81" d="M508.96,349.52l11.75,37.28c0.86,2.72-2.17,5.02-4.56,3.46l-62.33-40.73H508.96z"/>
			<linearGradient id="SVGID_81_" gradientUnits="userSpaceOnUse" x1="425.263" y1="213.6899" x2="455.2027" y2="364.1761">
				<stop  offset="0.1641" style="stop-color:#922F83"/>
				<stop  offset="0.9949" style="stop-color:#4C3D8F"/>
			</linearGradient>
			<path class="st82" d="M345.3,350.7h185.61c3.86,0,7-3.13,7-7V212.76c0-3.86-3.13-7-7-7H345.3c-3.86,0-7,3.13-7,7v130.95
				C338.3,347.57,341.44,350.7,345.3,350.7z"/>
		</g>
		<g>
			<linearGradient id="SVGID_82_" gradientUnits="userSpaceOnUse" x1="435.0371" y1="319.5984" x2="435.0371" y2="274.6346">
				<stop  offset="0" style="stop-color:#F3E7DA"/>
				<stop  offset="0.8923" style="stop-color:#E0CFBF"/>
			</linearGradient>
			<path class="st83" d="M485.81,252.59l0.22,52.03c0.02,3.98-3.19,7.21-7.17,7.23l-87.37,0.37c-3.98,0.02-7.21-3.19-7.23-7.17
				l-0.22-52.03c0-0.77,0.11-1.52,0.34-2.23c0.92-2.9,3.62-4.99,6.82-5l87.37-0.37c3.21-0.01,5.93,2.07,6.87,4.96
				C485.69,251.07,485.81,251.81,485.81,252.59z"/>
			<linearGradient id="SVGID_83_" gradientUnits="userSpaceOnUse" x1="434.9176" y1="303.3637" x2="434.9176" y2="259.8034">
				<stop  offset="0.1641" style="stop-color:#922F83"/>
				<stop  offset="0.9949" style="stop-color:#4C3D8F"/>
			</linearGradient>
			<path class="st84" d="M384.38,250.79c0,0,44.31,37.52,50.53,37.52c6.23,0,50.53-37.93,50.53-37.93L384.38,250.79z"/>
			<linearGradient id="SVGID_84_" gradientUnits="userSpaceOnUse" x1="435.0924" y1="255.3895" x2="436.2731" y2="287.8589">
				<stop  offset="0" style="stop-color:#F3E7DA"/>
				<stop  offset="0.8923" style="stop-color:#E0CFBF"/>
			</linearGradient>
			<path class="st85" d="M485.45,250.38c-15.86,10.79-45.96,30.88-50.4,30.9c-4.44,0.02-34.73-19.82-50.67-30.48
				c0.92-2.9,3.62-4.99,6.82-5l87.37-0.37C481.79,245.4,484.51,247.49,485.45,250.38z"/>
			<linearGradient id="SVGID_85_" gradientUnits="userSpaceOnUse" x1="483.6059" y1="238.4229" x2="493.0515" y2="271.4827">
				<stop  offset="0.1641" style="stop-color:#DFAB33"/>
				<stop  offset="0.9949" style="stop-color:#C74D2C"/>
			</linearGradient>
			<circle class="st86" cx="485.59" cy="245.38" r="14.55"/>
		</g>
	</g>
	<g>
		
			<linearGradient id="SVGID_86_" gradientUnits="userSpaceOnUse" x1="1817.795" y1="345.4398" x2="1745.7964" y2="540.3162" gradientTransform="matrix(0.9615 0.2749 -0.2749 0.9615 210.8706 -422.1779)">
			<stop  offset="0" style="stop-color:#FFFFFF"/>
			<stop  offset="1" style="stop-color:#354B29"/>
		</linearGradient>
		<path class="st87" d="M1865.94,655.71c-0.01,0-0.02-0.01-0.02-0.01c-0.76-0.23-1.19-1.04-0.96-1.8
			c0.16-0.53,15.92-53.9-9.96-98.42c-16.01-27.53-44.43-46.08-84.47-55.14c-15.22-3.44-28.84-3.11-40.58-0.15
			c3.91,1.24,7.84,2.65,11.77,4.24c21.2,8.6,33.95,23.14,35.9,40.94c1.94,17.74-7.21,36.37-23.31,47.47
			c-16.15,11.13-35.73,12.24-53.7,3.04c-20.11-10.29-27.89-33.02-19.35-56.55c5.83-16.08,19.22-31.22,38.75-38.97
			c-56.66-14.31-107.06,5.74-107.62,5.97c-0.74,0.3-1.58-0.05-1.88-0.79c-0.3-0.74,0.05-1.58,0.79-1.88
			c0.59-0.24,54.23-21.6,113.49-5.01c13.12-4.18,28.7-5.12,46.38-1.12c40.86,9.24,69.91,28.26,86.34,56.53
			c26.51,45.62,10.38,100.14,10.21,100.68C1867.49,655.5,1866.7,655.93,1865.94,655.71z M1724.88,501.68
			c-20.78,6.89-34.97,22.25-40.91,38.64c-6.67,18.4-3.7,41.92,17.96,53.01c17,8.7,35.5,7.66,50.75-2.85
			c15.24-10.5,23.91-28.08,22.08-44.78c-1.83-16.69-13.94-30.4-34.12-38.58C1735.36,504.97,1730.1,503.18,1724.88,501.68z"/>
		
			<linearGradient id="SVGID_87_" gradientUnits="userSpaceOnUse" x1="1929.4576" y1="602.0684" x2="1905.4581" y2="602.0684" gradientTransform="matrix(0.9615 0.2749 -0.2749 0.9615 210.8706 -422.1779)">
			<stop  offset="0" style="stop-color:#FFFFFF"/>
			<stop  offset="1" style="stop-color:#354B29"/>
		</linearGradient>
		<path class="st88" d="M1888.19,666.05c0,0-25.53,31.6-35.69,27.9c-11.2-4.07-10.07-44.2-10.07-44.2s8.32,7.24,22.18,12.89
			C1878.35,668.25,1888.19,666.05,1888.19,666.05z"/>
	</g>
	<g>
		<linearGradient id="SVGID_88_" gradientUnits="userSpaceOnUse" x1="1089.2887" y1="216.8699" x2="903.3368" y2="323.1281">
			<stop  offset="0" style="stop-color:#FFFFFF"/>
			<stop  offset="1" style="stop-color:#354B29"/>
		</linearGradient>
		<path class="st89" d="M1009.17,549.52c-0.19,0-0.38-0.03-0.57-0.1c-0.3-0.1-30.23-10.52-60.93-33.89
			c-28.42-21.63-63.37-59.08-68.53-114.72c-0.87-9.41-1.02-18.46-0.47-27.08c-18.76-21.28-28.31-45.12-38.27-69.98
			c-13.29-33.15-27.03-67.43-64.11-99.89c-30.24-26.48-65.41-28.82-89.59-26.13c-26.34,2.93-45.75,12.3-45.94,12.4
			c-0.88,0.43-1.94,0.07-2.37-0.81c-0.43-0.88-0.07-1.94,0.81-2.37c0.81-0.39,20.07-9.71,46.99-12.72
			c24.92-2.79,61.19-0.38,92.43,26.98c37.72,33.03,51.62,67.7,65.06,101.24c9.42,23.49,18.46,46.06,35.39,66.3
			c3.36-34.53,18.3-61.57,42.97-76.44c26.88-16.19,60.64-15.1,88.11,2.85c14.46,9.45,21.64,25.55,20.2,45.32
			c-2.05,28.17-21.18,56.04-46.53,67.79c-25.08,11.62-54.01,6.99-81.46-13.04c-7.79-5.69-14.49-11.64-20.34-17.82
			c-0.3,7.39-0.1,15.1,0.64,23.08c5.04,54.36,39.3,91.03,67.15,112.23c30.26,23.03,59.64,33.26,59.94,33.36
			c0.93,0.32,1.42,1.32,1.1,2.25C1010.59,549.05,1009.9,549.52,1009.17,549.52z M882.29,372.46c6.25,6.95,13.51,13.6,22.14,19.9
			c33.79,24.66,61,20.51,77.88,12.68c24.24-11.23,42.53-37.89,44.49-64.83c1.34-18.43-5.27-33.38-18.61-42.1
			c-26.32-17.2-58.63-18.27-84.34-2.78C899.39,310.07,884.88,337.45,882.29,372.46z"/>
		<linearGradient id="SVGID_89_" gradientUnits="userSpaceOnUse" x1="563.4981" y1="155.6279" x2="601.2807" y2="201.6754">
			<stop  offset="0" style="stop-color:#FFFFFF"/>
			<stop  offset="1" style="stop-color:#354B29"/>
		</linearGradient>
		<path class="st90" d="M651.75,228.35c0,0-56.07,14.44-64.56,1.57c-9.35-14.18,26.07-59.14,26.07-59.14s2.06,13.35,14.41,33.61
			C638.67,222.46,651.75,228.35,651.75,228.35z"/>
	</g>
	<g>
		<g>
			<g>
				<linearGradient id="SVGID_90_" gradientUnits="userSpaceOnUse" x1="530.512" y1="620.6276" x2="550.1904" y2="637.9446">
					<stop  offset="0" style="stop-color:#E4AA98"/>
					<stop  offset="1" style="stop-color:#BF5F4D"/>
				</linearGradient>
				<path class="st91" d="M563.39,627.33c0,0-27.67,19.47-28.46,20.07c-0.79,0.6-4.85,1.41-8.48-2.14
					c-3.63-3.55-5.88-6.95-5.12-8.32s2.6-0.76,5.66-2.25s23.29-22.7,23.29-22.7s4.79,1.21,8.5,5.55S563.39,627.33,563.39,627.33z"/>
				<linearGradient id="SVGID_91_" gradientUnits="userSpaceOnUse" x1="513.5217" y1="623.8669" x2="502.8954" y2="660.4688">
					<stop  offset="0.1077" style="stop-color:#345D7E"/>
					<stop  offset="1" style="stop-color:#211E4C"/>
				</linearGradient>
				<path class="st92" d="M527.9,642.48c1.85,2.32,5.66,3.66,7.04,4.91c1.38,1.25,1.1,5.74-0.51,8.31
					c-1.6,2.57-13.04,14.64-15.34,14.2c-2.29-0.44-11.66-7.05-19.26-13.93c-7.6-6.87-20.95-17.32-20.25-20.12
					c0.71-2.79,8.47-8.33,17.39-7.21c8.92,1.12,18.77,6.09,20.71,6.79c1.94,0.7,6.67-2.03,8.76-1.08
					C528.54,635.32,526.21,640.36,527.9,642.48z"/>
			</g>
			<linearGradient id="SVGID_92_" gradientUnits="userSpaceOnUse" x1="602.0884" y1="499.963" x2="654.0339" y2="577.0942">
				<stop  offset="0.1077" style="stop-color:#345D7E"/>
				<stop  offset="1" style="stop-color:#211E4C"/>
			</linearGradient>
			<path class="st93" d="M774.69,531.22c0,0-7.69,26.32-16.47,33.45c-8.77,7.13-105.91,17.57-112.5,18.67
				c-6.59,1.09-92.47,55.98-92.47,55.98s-6.53-1.37-13.63-8.42l-0.09-0.09c-7.13-7.13-7.27-11.8-7.27-11.8s70.05-60.44,86.2-69.61
				c0.22-0.13,0.45-0.25,0.65-0.35c14.81-7.83,111.13-26.62,111.13-26.62L774.69,531.22z"/>
			<linearGradient id="SVGID_93_" gradientUnits="userSpaceOnUse" x1="615.5994" y1="528.7605" x2="675.0283" y2="603.5386">
				<stop  offset="0" style="stop-color:#FFFFFF"/>
				<stop  offset="1" style="stop-color:#015A7E"/>
			</linearGradient>
			<path class="st94" d="M774.69,531.22c0,0-7.69,26.32-16.47,33.45c-8.77,7.13-105.91,17.57-112.5,18.67
				c-6.59,1.09-92.47,55.98-92.47,55.98s-6.53-1.37-13.63-8.42c11.15-6,35.93-19.95,42.43-23.99c8.24-5.11,38.66-48.01,38.89-50.77
				c0.13-1.46-1.2-4.35-2.49-6.74c0.22-0.13,0.45-0.25,0.65-0.35c14.81-7.83,111.13-26.62,111.13-26.62L774.69,531.22z"/>
		</g>
		<g>
			<linearGradient id="SVGID_94_" gradientUnits="userSpaceOnUse" x1="640.6575" y1="511.5374" x2="650.6935" y2="525.3123">
				<stop  offset="0" style="stop-color:#E4AA98"/>
				<stop  offset="1" style="stop-color:#BF5F4D"/>
			</linearGradient>
			<path class="st95" d="M664.06,507.68l-6.45,4.6c0,0-9.15,1.03-12.99,3.78s-13.73,22.84-12.68,24.89c1.05,2.05,6.82,0.77,10-1.73
				c3.19-2.5,6.89-8.48,10.2-8.66c3.31-0.18,4.87-0.17,7.99-1.49c3.76-1.59,5.24-4.91,5.24-4.91l7.79-5.75c0,0,0.23-3.8-3.03-7.74
				C667.79,507.81,664.06,507.68,664.06,507.68z"/>
			<linearGradient id="SVGID_95_" gradientUnits="userSpaceOnUse" x1="661.2032" y1="422.7807" x2="726.5356" y2="479.4546">
				<stop  offset="0" style="stop-color:#EDE2A0"/>
				<stop  offset="1" style="stop-color:#8E813A"/>
			</linearGradient>
			<path class="st96" d="M705.87,409.09c0,0,5.18-18.94,20.87-17.19c16.82,1.87,16.13,20.75,16.13,20.75s-16.34,46.77-20.43,58.76
				s-44.98,53.94-44.98,53.94s-5.16-0.26-11.45-6.44c-5.32-5.23-6.16-11.47-6.16-11.47s32.43-37.91,35.63-45.15
				C698.68,455.05,705.87,409.09,705.87,409.09z"/>
		</g>
		<g>
			<g>
				<linearGradient id="SVGID_96_" gradientUnits="userSpaceOnUse" x1="558.871" y1="662.1394" x2="574.6138" y2="666.4687">
					<stop  offset="0" style="stop-color:#E4AA98"/>
					<stop  offset="1" style="stop-color:#BF5F4D"/>
				</linearGradient>
				<path class="st97" d="M594.56,658.03c0,0-22.05,25.66-22.67,26.43c-0.62,0.77-4.36,2.56-8.75,0s-7.41-5.3-7-6.81
					c0.41-1.51,2.33-1.37,4.94-3.57c2.61-2.2,17.01-27.71,17.01-27.71s4.94,0,9.6,3.29S594.56,658.03,594.56,658.03z"/>
				<linearGradient id="SVGID_97_" gradientUnits="userSpaceOnUse" x1="542.4326" y1="660.6787" x2="545.5811" y2="700.4292">
					<stop  offset="0.1077" style="stop-color:#345D7E"/>
					<stop  offset="1" style="stop-color:#211E4C"/>
				</linearGradient>
				<path class="st98" d="M563.86,681.42c2.36,1.8,6.38,2.16,8.03,3.04c1.65,0.87,2.47,5.3,1.54,8.18
					c-0.93,2.88-9.06,17.39-11.39,17.53c-2.33,0.14-13.03-3.98-22.09-8.78c-9.06-4.8-24.56-11.66-24.56-14.54
					c0-2.88,6.17-10.15,15.09-11.25s19.69,1.3,21.75,1.51c2.06,0.21,5.97-3.6,8.23-3.19C562.73,674.32,561.7,679.78,563.86,681.42z"
					/>
			</g>
			<linearGradient id="SVGID_98_" gradientUnits="userSpaceOnUse" x1="635.6496" y1="549.2892" x2="697.0475" y2="620.1329">
				<stop  offset="0.1077" style="stop-color:#345D7E"/>
				<stop  offset="1" style="stop-color:#211E4C"/>
			</linearGradient>
			<path class="st99" d="M771.4,570.01c-21.41,6.59-102.08,7.83-107.02,10.3c-4.94,2.47-75.32,95.28-75.32,95.28
				s-9.95-1.26-16.53-5.79c-0.02-0.01-0.05-0.04-0.07-0.05c-6.59-4.56-10.71-12.74-10.71-12.74s49.83-84.16,63.92-102.92
				c1.03-1.37,1.87-2.4,2.48-3.01c9.06-9.06,102.08-28.68,102.08-28.68l56.39,6.45C786.63,528.85,792.8,563.44,771.4,570.01z"/>
			<linearGradient id="SVGID_99_" gradientUnits="userSpaceOnUse" x1="640.9267" y1="537.536" x2="730.6604" y2="680.9918">
				<stop  offset="0" style="stop-color:#FFFFFF"/>
				<stop  offset="1" style="stop-color:#015A7E"/>
			</linearGradient>
			<path class="st100" d="M771.4,570.01c-21.41,6.59-102.08,7.83-107.02,10.3c-4.94,2.47-75.32,95.28-75.32,95.28
				s-9.95-1.26-16.53-5.79c25.81-20.5,80.3-92.45,80.94-93.55c0.7-1.18-2.61-3.54-2.16-5.9c0.45-2.36,8.41,1.91,8.86,0.73
				c0.45-1.18-2.07-3.25,2.73-5.76c4.81-2.5,39.92-12.87,39.92-12.87s-2.8-11.18-5.31-12.59c-2.21-1.24-58.7,11.29-71.82,14.23
				c1.03-1.37,1.87-2.4,2.48-3.01c9.06-9.06,102.08-28.68,102.08-28.68l56.39,6.45C786.63,528.85,792.8,563.44,771.4,570.01z"/>
		</g>
		<linearGradient id="SVGID_100_" gradientUnits="userSpaceOnUse" x1="682.8779" y1="391.9458" x2="771.8225" y2="511.5881">
			<stop  offset="0" style="stop-color:#EDE2A0"/>
			<stop  offset="1" style="stop-color:#8E813A"/>
		</linearGradient>
		<path class="st101" d="M792.52,541.39c-0.33,1.32-14.78,5.31-32.2,3.83c-26.15-2.24-51.22-18.55-51.22-18.55s2.57-2.1,4.7-6.71
			c2.4-5.23,4.22-13.7,1.04-26c-1.12-4.35-2.22-8.55-3.27-12.66c0,0,0,0,0-0.01c-4.57-17.76-8.39-33.53-10.21-49.71
			c-2.24-19.93,7.57-33.73,16.66-40.95c11.09-8.81,19.65-8.8,23.6-8.17c6.14,0.96,22.92,8.65,35.54,51.31
			C788.4,471.76,792.85,540.06,792.52,541.39z"/>
		<linearGradient id="SVGID_101_" gradientUnits="userSpaceOnUse" x1="758.9399" y1="518.5074" x2="721.1573" y2="437.629">
			<stop  offset="0" style="stop-color:#FFFFFF"/>
			<stop  offset="1" style="stop-color:#9D8B3B"/>
		</linearGradient>
		<path class="st102" d="M762.61,428.29c0,0-7.99,56.4-13.9,63.49c-5.1,6.12-21.62,21.51-34.91,28.18c2.4-5.23,4.22-13.7,1.04-26
			c-1.12-4.35-2.22-8.55-3.27-12.66c0,0,0,0,0-0.01c12.03-14.92,28.71-35.59,29.47-36.34C742.22,443.77,762.61,428.29,762.61,428.29
			z"/>
		<g>
			<linearGradient id="SVGID_102_" gradientUnits="userSpaceOnUse" x1="724.2242" y1="413.2368" x2="730.1265" y2="370.3465">
				<stop  offset="0" style="stop-color:#E4AA98"/>
				<stop  offset="1" style="stop-color:#BF5F4D"/>
			</linearGradient>
			<path class="st103" d="M737.55,387.31c0,0-4.18,5.17-8.7,7.5c-4.53,2.34-8.41,3.36-8.41,3.36l-0.27-9.94l-0.38-13.66l12.87-9.39
				l3.42-2.5L737.55,387.31z"/>
			<linearGradient id="SVGID_103_" gradientUnits="userSpaceOnUse" x1="730.8328" y1="387.0923" x2="722.5679" y2="366.8728">
				<stop  offset="0" style="stop-color:#FFFFFF"/>
				<stop  offset="1" style="stop-color:#BF5F4D"/>
			</linearGradient>
			<path class="st104" d="M733.95,367.48c0,0-0.14,10.24-13.78,20.76l-0.38-13.66l12.87-9.39L733.95,367.48z"/>
			<linearGradient id="SVGID_104_" gradientUnits="userSpaceOnUse" x1="697.6541" y1="339.2318" x2="763.6151" y2="363.8678">
				<stop  offset="0" style="stop-color:#E4AA98"/>
				<stop  offset="1" style="stop-color:#BF5F4D"/>
			</linearGradient>
			<path class="st105" d="M739.41,360.37c-0.39,0.99-8.32,14.17-19.93,18.87c-1.78,0.72-3.65,1.24-5.58,1.49
				c-12.53,1.59-19.79-17.72-18.9-35.96c0.89-18.25,11.33-29.78,24.57-31.19c22.27-2.39,22.59,19.22,23.04,27.91
				C742.83,345.9,743.08,351.18,739.41,360.37z"/>
			<linearGradient id="SVGID_105_" gradientUnits="userSpaceOnUse" x1="698.7647" y1="358.9701" x2="769.7546" y2="311.2991">
				<stop  offset="0" style="stop-color:#FFFFFF"/>
				<stop  offset="1" style="stop-color:#BF5F4D"/>
			</linearGradient>
			<path class="st106" d="M739.41,360.37c-0.39,0.99-8.32,14.17-19.93,18.87c9.74-12.54,8.87-39.14,7.38-40.36
				c-1.68-1.37-2.44-9.63-3.24-10.33c-0.79-0.68-6,0.11-7.47,0.79c-1.48,0.68-4.63,4.63-8.08,8.06c-3.44,3.45-13.08,7.36-13.08,7.36
				c0.89-18.25,11.33-29.78,24.57-31.19c22.27-2.39,22.59,19.22,23.04,27.91C742.83,345.9,743.08,351.18,739.41,360.37z"/>
			<linearGradient id="SVGID_106_" gradientUnits="userSpaceOnUse" x1="714.2994" y1="277.8284" x2="717.8416" y2="339.8155">
				<stop  offset="0.0513" style="stop-color:#EECA7F"/>
				<stop  offset="1" style="stop-color:#CB363D"/>
			</linearGradient>
			<path class="st107" d="M739.06,342.81c-1.15,2-3.01,3.78-4.13,3.13s0.59-5.67-0.95-6.62s-5.91-0.47-6.5-3.66
				c-0.59-3.19-1.89-10.51-3.66-11.46c-1.77-0.95-10.4,0.47-11.58,1.54c-1.18,1.06-8.45,19.02-22.98,17.07
				c-14.53-1.95-17.37-23.57-10.1-32.96s18.61-8.51,19.67-8.86s11.7-14.35,28.88-10.1s17.36,27.17,17.36,27.17
				s9.93,2.42,13.47,12.35s-11.7,32.61-14.35,35.62c-2.66,3.01-6.02,8.51-7.8,8.51s-2.45-7.05-2.45-7.05l4.99-6.71
				c0,0,2.24-4.75,2.6-10.78C742,342.19,739.06,342.81,739.06,342.81z"/>
			<linearGradient id="SVGID_107_" gradientUnits="userSpaceOnUse" x1="762.6366" y1="344.2393" x2="730.1672" y2="353.6849">
				<stop  offset="0" style="stop-color:#E4AA98"/>
				<stop  offset="1" style="stop-color:#BF5F4D"/>
			</linearGradient>
			<path class="st108" d="M737.14,344.92c1.14-3.96,3.95-6.01,7.41-4.24c3.46,1.77,1.93,12.48-0.44,16.57
				c-2.08,3.59-5.23,4.98-6.74,3.66C735.86,359.57,736.31,347.84,737.14,344.92z"/>
		</g>
		<g>
			<linearGradient id="SVGID_108_" gradientUnits="userSpaceOnUse" x1="647.887" y1="513.9514" x2="664.4169" y2="535.7944">
				<stop  offset="0" style="stop-color:#E4AA98"/>
				<stop  offset="1" style="stop-color:#BF5F4D"/>
			</linearGradient>
			<path class="st109" d="M673.44,511.02l-7.13,3.43c0,0-9.19-0.55-13.45,1.51c-4.25,2.06-17.42,20.17-16.74,22.36
				s6.59,1.92,10.15,0c3.57-1.92,8.23-7.18,11.52-6.79c3.29,0.39,4.83,0.67,8.13-0.1c3.98-0.93,6-3.94,6-3.94l8.66-4.34
				c0,0,0.87-3.7-1.66-8.15C677.08,511.78,673.44,511.02,673.44,511.02z"/>
			<linearGradient id="SVGID_109_" gradientUnits="userSpaceOnUse" x1="693.9333" y1="442.2966" x2="760.8365" y2="514.7095">
				<stop  offset="0" style="stop-color:#EDE2A0"/>
				<stop  offset="1" style="stop-color:#8E813A"/>
			</linearGradient>
			<path class="st110" d="M762.61,428.29c0,0-19.4,45.82-25.48,56.93c-6.07,11.11-53.51,45.48-53.51,45.48s-4.5-1.02-9.33-7.17
				c-0.3-0.35-0.58-0.73-0.86-1.13c-4.36-6.07-4.12-12.35-4.12-12.35s38.42-31.82,42.81-38.41c4.39-6.59,15.6-55.98,15.6-55.98
				s6.69-16.31,21.85-11.91c1.31,0.38,2.49,0.86,3.57,1.43C765.34,411.54,762.61,428.29,762.61,428.29z"/>
			<linearGradient id="SVGID_110_" gradientUnits="userSpaceOnUse" x1="698.1965" y1="457.7346" x2="802.689" y2="511.1616">
				<stop  offset="0" style="stop-color:#FFFFFF"/>
				<stop  offset="1" style="stop-color:#9D8B3B"/>
			</linearGradient>
			<path class="st111" d="M762.61,428.29c0,0-19.4,45.82-25.48,56.93c-6.07,11.11-53.51,45.48-53.51,45.48s-4.5-1.02-9.33-7.17
				c18.03-10.32,50.3-38.17,52.28-40.71c2.07-2.66,2.36-2.95-1.48-4.72c-3.84-1.77,15.05-22.43,19.48-34.24
				c4.43-11.81,8.56-38.68,8.56-38.68C765.34,411.54,762.61,428.29,762.61,428.29z"/>
		</g>
		<g>
			<linearGradient id="SVGID_111_" gradientUnits="userSpaceOnUse" x1="579.6506" y1="471.7005" x2="603.5599" y2="510.959">
				<stop  offset="0.0923" style="stop-color:#D1645C"/>
				<stop  offset="1" style="stop-color:#CB363D"/>
			</linearGradient>
			<polygon class="st112" points="582.06,470.41 613.75,546.41 620.96,543.88 588.1,466.86 			"/>
			<linearGradient id="SVGID_112_" gradientUnits="userSpaceOnUse" x1="644.1459" y1="505.9573" x2="649.4591" y2="522.7823">
				<stop  offset="0.0923" style="stop-color:#D1645C"/>
				<stop  offset="1" style="stop-color:#CB363D"/>
			</linearGradient>
			<polygon class="st113" points="689.12,526.67 692.5,535.34 623.73,552.45 617.43,545.12 			"/>
		</g>
	</g>
	<g>
		<g>
			<linearGradient id="SVGID_113_" gradientUnits="userSpaceOnUse" x1="1322.1848" y1="1491.6884" x2="1339.1083" y2="1459.8093">
				<stop  offset="0.0923" style="stop-color:#C91F54"/>
				<stop  offset="1" style="stop-color:#A3272B"/>
			</linearGradient>
			<path class="st114" d="M1358.98,1442.65c0,0-3.17,14.32-5.38,27.66c-0.6,3.65-1.05,22.59-2.55,23.69
				c-1.96,1.44-17.19,1.22-23.85,1.39c-8.24,0.2-25.73,0.08-27.64-0.16c-1.9-0.24-0.63-19.45,3.38-23.65
				c4.02-4.2,23.13-7.64,24.61-8.74c1.48-1.1,5.2-22.66,5.2-22.66s6.77-1.94,13.53-1.28
				C1353.06,1439.56,1358.98,1442.65,1358.98,1442.65z"/>
			<linearGradient id="SVGID_114_" gradientUnits="userSpaceOnUse" x1="1325.1396" y1="1316.4468" x2="1417.6361" y2="1324.7477">
				<stop  offset="0.1077" style="stop-color:#345D7E"/>
				<stop  offset="1" style="stop-color:#211E4C"/>
			</linearGradient>
			<path class="st115" d="M1442.58,1233.06c-0.37,2.62-0.83,5.29-1.42,7.95c-0.96,4.35-2.18,8.09-3.58,11.35
				c-5.21,12.31-12.55,17.65-14.89,21.84c-0.13,0.24-0.38,0.81-0.71,1.69c-7.06,18.48-56.82,171.91-56.82,171.91
				s-8.63,1.13-18.24,0.07c-0.21-0.02-0.42-0.05-0.64-0.07c-9.87-1.17-17.2-6.47-17.2-6.47l41.8-217.8l6.13-31.9l59.68,6.91
				l6.43,0.74C1443.14,1199.27,1445.11,1215.21,1442.58,1233.06z"/>
			<linearGradient id="SVGID_115_" gradientUnits="userSpaceOnUse" x1="1348.0652" y1="1345.0751" x2="1462.0033" y2="1358.0629">
				<stop  offset="0" style="stop-color:#FFFFFF"/>
				<stop  offset="1" style="stop-color:#0D5177"/>
			</linearGradient>
			<path class="st116" d="M1437.59,1252.36c-5.21,12.31-12.55,17.65-14.89,21.84c-2.95,5.3-57.52,173.6-57.52,173.6
				s-8.63,1.13-18.24,0.07c27.45-53.83,64.11-193.72,64.11-193.72S1428.05,1251.94,1437.59,1252.36z"/>
			<linearGradient id="SVGID_116_" gradientUnits="userSpaceOnUse" x1="1342.6252" y1="1440.6833" x2="1404.4155" y2="1449.3419">
				<stop  offset="0.1077" style="stop-color:#345D7E"/>
				<stop  offset="1" style="stop-color:#211E4C"/>
			</linearGradient>
			<path class="st117" d="M1348.19,1430.73c14.8,2.65,24.94-0.64,25.06,1.88c0.05,1.03-5.07,21.09-6.98,22.2s-12.16,1.33-21.25,0.22
				c-9.09-1.1-20.09-5.74-20.09-8.39c0-2.65,3.14-21.2,4.16-21.75C1330.11,1424.32,1337.98,1428.9,1348.19,1430.73z"/>
		</g>
		<g>
			<linearGradient id="SVGID_117_" gradientUnits="userSpaceOnUse" x1="1282.2203" y1="1122.285" x2="1371.954" y2="1112.8395">
				<stop  offset="0" style="stop-color:#E4AA98"/>
				<stop  offset="1" style="stop-color:#BF5F4D"/>
			</linearGradient>
			<path class="st118" d="M1376.51,1108.95c-1.2,1.18-27.91,44.81-31.25,45.97c-3.34,1.16-11.34-38.8-11.34-38.8l22.9-40.96
				c0,0,11.27,1.16,17.05,12.14S1376.51,1108.95,1376.51,1108.95z"/>
			<linearGradient id="SVGID_118_" gradientUnits="userSpaceOnUse" x1="1279.4165" y1="1095.649" x2="1369.1501" y2="1086.2034">
				<stop  offset="0" style="stop-color:#E4AA98"/>
				<stop  offset="1" style="stop-color:#BF5F4D"/>
			</linearGradient>
			<path class="st119" d="M1345.26,1154.92c-7.55,3.9-17.49,4.12-28.03-9.32c-10.26-13.08-36.7-73.48-38.87-74.78
				c-2.17-1.3-12.07-4.99-16.4-9.54c-4.33-4.55-7.8-15.17-7.37-17.12s3.83-1.59,5.27,0.43s3.18,5.13,4.05,6
				c0.87,0.87,2.75-1.59,2.75-4.33c0-2.75-1.88-6.21-4.62-8.24c-2.75-2.02-10.4-3.18-10.4-4.91c0-1.73,9.25-4.05,15.89-3.18
				s12.43,5.2,16.91,10.26c4.48,5.06,7.08,19.94,8.53,22.83c1.44,2.89,39.95,52.03,39.95,52.03s6.87,8.13,9.62,20.79
				C1345.09,1147.71,1345.26,1154.92,1345.26,1154.92z"/>
			<linearGradient id="SVGID_119_" gradientUnits="userSpaceOnUse" x1="1344.8096" y1="1062.1842" x2="1402.6628" y2="1102.9177">
				<stop  offset="0.1641" style="stop-color:#DFAB33"/>
				<stop  offset="0.9949" style="stop-color:#C74D2C"/>
			</linearGradient>
			<path class="st120" d="M1381.39,1106.36l-11.28,21.24c0,0-8.8-2.11-19.62-10.78c-1.16-0.92-2.26-1.88-3.29-2.83
				c-8.69-7.99-13.28-16.45-13.28-16.45s28.83-54.47,40.53-65.3c0,0,6.28,8.65,10.24,21.62c1.03,3.36,1.9,7.03,2.47,10.9
				C1390.27,1086.21,1381.39,1106.36,1381.39,1106.36z"/>
			<linearGradient id="SVGID_120_" gradientUnits="userSpaceOnUse" x1="1334.8655" y1="1071.9923" x2="1414.3663" y2="1107.4135">
				<stop  offset="0.1333" style="stop-color:#FFFFFF"/>
				<stop  offset="0.9949" style="stop-color:#C74D2C"/>
			</linearGradient>
			<path class="st121" d="M1381.39,1106.36l-11.28,21.24c0,0-8.8-2.11-19.62-10.78c-1.16-0.92-2.26-1.88-3.29-2.83
				c6.2-3.6,12.21-7.78,9.88-8.63c-3.25-1.18-3.54,0,3.79-13.58s13.05-36.29,13.05-36.29s5.14-0.85,10.77-1.63
				c1.03,3.36,1.9,7.03,2.47,10.9C1390.27,1086.21,1381.39,1106.36,1381.39,1106.36z"/>
		</g>
		<g>
			<linearGradient id="SVGID_121_" gradientUnits="userSpaceOnUse" x1="1462.0701" y1="1498.7576" x2="1478.2064" y2="1470.027">
				<stop  offset="0.0923" style="stop-color:#C91F54"/>
				<stop  offset="1" style="stop-color:#A3272B"/>
			</linearGradient>
			<path class="st122" d="M1485.75,1440.26c0,0,2.1,17.18,2.49,20.92c0.4,3.73,6.42,11.44,7.65,16.59
				c0.92,3.86,1.98,16.18,1.57,16.73c-0.71,0.96-5.82,2.32-20.07,2.66c-12.82,0.3-18.53-0.59-19.72-2.56
				c-1.19-1.97-1.59-12.03-0.99-16.17s4.84-11.72,4.9-14.14c0.11-4.34-1.52-20.66-1.52-20.66s1.74-4.76,12.3-5.32
				C1481.3,1437.83,1485.75,1440.26,1485.75,1440.26z"/>
			<linearGradient id="SVGID_122_" gradientUnits="userSpaceOnUse" x1="1414.1392" y1="1326.6108" x2="1507.8549" y2="1312.8964">
				<stop  offset="0" style="stop-color:#345D7E"/>
				<stop  offset="1" style="stop-color:#211E4C"/>
			</linearGradient>
			<path class="st123" d="M1489.75,1438.75c0,0-2.62,4.22-12.72,5.41c-0.81,0.09-1.69,0.17-2.61,0.22
				c-14.78,0.85-21.57-4.21-21.57-4.21s-24.24-128.48-30.86-164.28c-1.05-5.67-1.65-9.01-1.65-9.16c0-1.11-7.83-7.21-11.22-16.93
				c-1.2-3.45-1.95-10.6-2.42-18.38c-0.85-14.13-0.78-30.37-0.78-30.37l30.78-2.52l39.41-3.22c0,0,3.39,58.74,6.35,87.89
				C1485.42,1312.35,1489.75,1438.75,1489.75,1438.75z"/>
			<linearGradient id="SVGID_123_" gradientUnits="userSpaceOnUse" x1="1360.7426" y1="1339.0109" x2="1563.8241" y2="1275.2528">
				<stop  offset="0" style="stop-color:#FFFFFF"/>
				<stop  offset="1" style="stop-color:#0D5177"/>
			</linearGradient>
			<path class="st124" d="M1489.75,1438.75c0,0-2.62,4.22-12.72,5.41c6.12-34.72-8.09-210.11-9.86-210.7
				c-1.03-0.34-11.09-0.19-24.59-0.4c-9.79-0.15-21.38-0.5-32.67-1.37c-1.09-0.08-2.16-0.18-3.21-0.28
				c-17.5-1.68-29.95-5.67-35.81-7.89l6.13-31.9l59.68,6.91l39.41-3.22c0,0,3.39,58.74,6.35,87.89
				C1485.42,1312.35,1489.75,1438.75,1489.75,1438.75z"/>
			<linearGradient id="SVGID_124_" gradientUnits="userSpaceOnUse" x1="1468.4917" y1="1443.2773" x2="1512.1777" y2="1443.6709">
				<stop  offset="0.1077" style="stop-color:#345D7E"/>
				<stop  offset="1" style="stop-color:#211E4C"/>
			</linearGradient>
			<path class="st125" d="M1470.66,1433.34c13.96-0.99,20.12-4.02,21.61-3.51c1.49,0.51,2.67,19.84,2.11,21.17
				c-0.56,1.34-12.02,5.34-21.15,5.91s-19.93-1.95-21.15-2.77c-1.82-1.21-5.04-21.23-3.33-22.38
				C1450.32,1430.72,1459.61,1434.13,1470.66,1433.34z"/>
		</g>
		<linearGradient id="SVGID_125_" gradientUnits="userSpaceOnUse" x1="1412.5658" y1="1003.1082" x2="1443.2645" y2="1230.9874">
			<stop  offset="0.1641" style="stop-color:#DFAB33"/>
			<stop  offset="0.9949" style="stop-color:#C74D2C"/>
		</linearGradient>
		<path class="st126" d="M1490.65,1076.94c-2.4,25.53-5.77,55.78-6.67,74.22c-1.74,35.83-2.31,67.05-2.31,67.05
			s-19.07,9.24-58.95,8.67c-39.88-0.58-57.8-12.14-57.8-12.14s0.13-0.66,0.37-1.88c1.77-9.37,9.66-51.92,11.19-79.04
			c1.72-30.64-5.49-98.12-2.03-101.59c3.47-3.47,32.66-10.15,66.18-10.19c24.2-0.01,46.39,5.35,51.3,9.1
			C1494.31,1032.98,1492.92,1052.86,1490.65,1076.94z"/>
		<linearGradient id="SVGID_126_" gradientUnits="userSpaceOnUse" x1="1375.7344" y1="1118.1813" x2="1542.214" y2="1206.7343">
			<stop  offset="0.1333" style="stop-color:#FFFFFF"/>
			<stop  offset="0.9949" style="stop-color:#C74D2C"/>
		</linearGradient>
		<path class="st127" d="M1490.65,1076.94c-2.4,25.53-5.77,55.78-6.67,74.22c-1.74,35.83-2.31,67.05-2.31,67.05
			s-19.07,9.24-58.95,8.67c-39.88-0.58-57.8-12.14-57.8-12.14s0.13-0.66,0.37-1.88c6.58,1.22,15.38,2.61,27.12,4.07
			c37.78,4.72,66.9-13.38,66.9-23.22c0-9.84,0,0-7.08-2.09c-7.08-2.1,2.36-3.02,11.42-22.3c9.06-19.29,14.03-97.03,14.09-97.9
			L1490.65,1076.94z"/>
		<g>
			<linearGradient id="SVGID_127_" gradientUnits="userSpaceOnUse" x1="1434.4142" y1="1039.7352" x2="1433.0367" y2="1006.4817">
				<stop  offset="0" style="stop-color:#E4AA98"/>
				<stop  offset="1" style="stop-color:#BF5F4D"/>
			</linearGradient>
			<path class="st128" d="M1444.87,1001.72l-0.18,8.02v0.01l-0.4,18.95c0,0-3.22,4.5-10.5,4.85c-7.26,0.34-11.76-2.08-11.76-2.08
				l0.38-6.26l0.89-14.62L1444.87,1001.72z"/>
			<linearGradient id="SVGID_128_" gradientUnits="userSpaceOnUse" x1="1429.0558" y1="1032.3584" x2="1435.6973" y2="1002.5455">
				<stop  offset="0" style="stop-color:#FFFFFF"/>
				<stop  offset="1" style="stop-color:#EB8D7A"/>
			</linearGradient>
			<path class="st129" d="M1444.87,1001.72l-0.18,8.02v0.01c-0.2,0.55-3.7,9.09-22.28,15.47l0.38-6.25l0.51-8.37l17.51-7.2
				L1444.87,1001.72z"/>
			<linearGradient id="SVGID_129_" gradientUnits="userSpaceOnUse" x1="1432.4172" y1="1024.2545" x2="1432.7124" y2="1008.315">
				<stop  offset="0" style="stop-color:#FFFFFF"/>
				<stop  offset="1" style="stop-color:#EB8D7A"/>
			</linearGradient>
			<path class="st130" d="M1442.49,1005.39c0,0-3.86,10.22-19.69,13.58l0.51-8.37l17.51-7.2L1442.49,1005.39z"/>
			<linearGradient id="SVGID_130_" gradientUnits="userSpaceOnUse" x1="1388.9727" y1="971.1499" x2="1408.7495" y2="974.692">
				<stop  offset="0" style="stop-color:#E4AA98"/>
				<stop  offset="1" style="stop-color:#BF5F4D"/>
			</linearGradient>
			<path class="st131" d="M1406.63,964.86c-1.41-4.58-8.26-4.89-11.05,0.44c-2.79,5.34,0.82,14.22,3.68,17.43
				c3.22,3.63,7.9,4.65,9.23,2.08C1409.82,982.24,1408.03,969.4,1406.63,964.86z"/>
			<linearGradient id="SVGID_131_" gradientUnits="userSpaceOnUse" x1="1385.559" y1="942.7094" x2="1400.3177" y2="952.7454">
				<stop  offset="0" style="stop-color:#944F45"/>
				<stop  offset="1" style="stop-color:#5A3B36"/>
			</linearGradient>
			<path class="st132" d="M1399.51,938.37c0,0-2.6,8.45-1.84,17.77c0.76,9.32,5.74,17.45,7.48,17.66s6.72-24.82,6.29-29.8
				C1411,939.01,1399.51,938.37,1399.51,938.37z"/>
			<linearGradient id="SVGID_132_" gradientUnits="userSpaceOnUse" x1="1413.3926" y1="965.894" x2="1471.5424" y2="976.2252">
				<stop  offset="0" style="stop-color:#E4AA98"/>
				<stop  offset="1" style="stop-color:#BF5F4D"/>
			</linearGradient>
			<path class="st133" d="M1435.7,925.68c21.58,1.23,26.33,18.21,25.36,33.81c-0.98,15.61-10.08,51.48-34.24,52.68
				c-21.77,1.08-22.97-28.08-22.97-49.1C1403.84,946.82,1412.95,924.38,1435.7,925.68z"/>
			<linearGradient id="SVGID_133_" gradientUnits="userSpaceOnUse" x1="1427.52" y1="901.2419" x2="1436.3752" y2="969.7228">
				<stop  offset="0" style="stop-color:#944F45"/>
				<stop  offset="1" style="stop-color:#5A3B36"/>
			</linearGradient>
			<path class="st134" d="M1460.23,966.64c-0.99,0.89-4.8,10.9-7.95,10.9s-0.98-13.82-3.25-14.68c-2.28-0.87-4.44,0.43-6.07-2.93
				c-1.63-3.36-1.52-8.67-2.71-9.54c-1.19-0.87-19.72,8.99-33.16,4.23c-13.44-4.77-20.81-26.44-10.84-42.26
				c9.97-15.82,37.28-15.39,48.12-6.29c10.84,9.1,12.46,22.38,12.46,22.38s8.94-0.92,14.3,9.46c5.36,10.37-4.06,31.67-5.36,32.32
				S1461.1,965.86,1460.23,966.64z"/>
			<linearGradient id="SVGID_134_" gradientUnits="userSpaceOnUse" x1="1487.6582" y1="972.9586" x2="1451.6466" y2="977.6815">
				<stop  offset="0" style="stop-color:#E4AA98"/>
				<stop  offset="1" style="stop-color:#BF5F4D"/>
			</linearGradient>
			<path class="st135" d="M1456.7,967c1.79-4.79,9.09-4.69,11.73,1.16c2.63,5.85-1.76,15.07-5.01,18.32
				c-3.66,3.66-8.7,4.46-9.95,1.64C1452.22,985.3,1454.92,971.75,1456.7,967z"/>
		</g>
		<g>
			<linearGradient id="SVGID_135_" gradientUnits="userSpaceOnUse" x1="1605.3313" y1="1146.4502" x2="1515.5975" y2="1116.5389">
				<stop  offset="0" style="stop-color:#E4AA98"/>
				<stop  offset="1" style="stop-color:#BF5F4D"/>
			</linearGradient>
			<path class="st136" d="M1517.52,1084.98c0,0,20.37,41.61,22.54,46.38c2.17,4.77-27.8,19.43-28.38,15.74
				c-0.56-3.6-19.63-39.8-19.63-39.8s-0.76-10.08,9.21-18.64C1509.31,1081.76,1517.52,1084.98,1517.52,1084.98z"/>
			<linearGradient id="SVGID_136_" gradientUnits="userSpaceOnUse" x1="1582.0776" y1="1216.2109" x2="1492.344" y2="1186.2997">
				<stop  offset="0" style="stop-color:#E4AA98"/>
				<stop  offset="1" style="stop-color:#BF5F4D"/>
			</linearGradient>
			<path class="st137" d="M1540.06,1131.36c4.48,8.91-8.67,91.51-8.67,91.51s3.9,15.37,3.03,22.69c-0.87,7.32-9.54,17.94-18.42,18.3
				c-8.89,0.37-10.4-4.39-9.54-10.62c0.87-6.22,2.17-9.33,1.73-12.45s-5.42,3.66-6.07,6.95c-0.65,3.29-0.88,4.29-2.32,4.22
				c-1.33-0.06-2.52-2.51-2.08-7.52s2.44-8,4.38-10.39c2.6-3.2,8.48-7,9.34-9.29s0.23-80.14,0.23-80.14s5.4-5.6,14.29-8.9
				C1534.86,1132.46,1540.06,1131.36,1540.06,1131.36z"/>
			<linearGradient id="SVGID_137_" gradientUnits="userSpaceOnUse" x1="1525.8278" y1="1062.0903" x2="1466.7906" y2="1106.9585">
				<stop  offset="0.1641" style="stop-color:#DFAB33"/>
				<stop  offset="0.9949" style="stop-color:#C74D2C"/>
			</linearGradient>
			<path class="st138" d="M1537,1110.42c0,0-9.13,8.17-18.82,14.05c-1.37,0.84-2.75,1.62-4.12,2.33
				c-11.05,5.74-16.38,7.78-16.38,7.78l-15.37-26.62c0,0-6.9-20.07-4.16-40.96c0.44-3.35,1.07-6.55,1.82-9.56l0.01-0.01
				c3.93-15.74,11.15-26.27,11.15-26.27c6.55,4.71,17.55,23.71,28.18,44.01C1528.12,1091.95,1537,1110.42,1537,1110.42z"/>
			<linearGradient id="SVGID_138_" gradientUnits="userSpaceOnUse" x1="1513.9341" y1="1067.6521" x2="1453.718" y2="1162.1085">
				<stop  offset="0.1333" style="stop-color:#FFFFFF"/>
				<stop  offset="0.9949" style="stop-color:#C74D2C"/>
			</linearGradient>
			<path class="st139" d="M1518.18,1124.47c-1.37,0.84-2.75,1.62-4.12,2.33c-11.05,5.74-16.38,7.78-16.38,7.78l-15.37-26.62
				c0,0-6.9-20.07-4.16-40.96c0.44-3.35,1.07-6.55,1.82-9.56l0.01-0.01c0,0,5.23,22.72,13.18,36.06
				c7.96,13.35,12.98,5.09,11.8,14.83C1503.78,1118.05,1505.43,1122.34,1518.18,1124.47z"/>
		</g>
	</g>
	<g>
		<linearGradient id="SVGID_139_" gradientUnits="userSpaceOnUse" x1="251.8728" y1="550.8025" x2="285.7312" y2="593.4058">
			<stop  offset="0.0923" style="stop-color:#F2D73E"/>
			<stop  offset="1" style="stop-color:#D2642D"/>
		</linearGradient>
		<circle class="st140" cx="275.76" cy="580.86" r="28.18"/>
		<linearGradient id="SVGID_140_" gradientUnits="userSpaceOnUse" x1="326.8903" y1="527.0308" x2="341.3546" y2="545.231">
			<stop  offset="0.0923" style="stop-color:#F2D73E"/>
			<stop  offset="1" style="stop-color:#D2642D"/>
		</linearGradient>
		<circle class="st141" cx="337.09" cy="539.87" r="12.04"/>
		<linearGradient id="SVGID_141_" gradientUnits="userSpaceOnUse" x1="1662.718" y1="1021.0293" x2="1681.0619" y2="1044.1111">
			<stop  offset="0.0923" style="stop-color:#F2D73E"/>
			<stop  offset="1" style="stop-color:#D2642D"/>
		</linearGradient>
		<circle class="st142" cx="1675.66" cy="1037.31" r="15.27"/>
		<linearGradient id="SVGID_142_" gradientUnits="userSpaceOnUse" x1="1110.3921" y1="156.4388" x2="1129.415" y2="180.375">
			<stop  offset="0.0923" style="stop-color:#F2D73E"/>
			<stop  offset="1" style="stop-color:#D2642D"/>
		</linearGradient>
		<circle class="st143" cx="1123.81" cy="173.33" r="15.83"/>
		<linearGradient id="SVGID_143_" gradientUnits="userSpaceOnUse" x1="1073.3009" y1="199.6868" x2="1084.6981" y2="214.0276">
			<stop  offset="0.0923" style="stop-color:#F2D73E"/>
			<stop  offset="1" style="stop-color:#D2642D"/>
		</linearGradient>
		<circle class="st144" cx="1081.34" cy="209.8" r="9.48"/>
		<linearGradient id="SVGID_144_" gradientUnits="userSpaceOnUse" x1="147.6403" y1="1194.7538" x2="157.5599" y2="1207.2355">
			<stop  offset="0.0923" style="stop-color:#F2D73E"/>
			<stop  offset="1" style="stop-color:#D2642D"/>
		</linearGradient>
		<circle class="st145" cx="154.64" cy="1203.56" r="8.26"/>
		<linearGradient id="SVGID_145_" gradientUnits="userSpaceOnUse" x1="711.6395" y1="1333.7305" x2="728.6682" y2="1355.1572">
			<stop  offset="0.0923" style="stop-color:#F2D73E"/>
			<stop  offset="1" style="stop-color:#D2642D"/>
		</linearGradient>
		<circle class="st146" cx="723.65" cy="1348.85" r="14.17"/>
		<linearGradient id="SVGID_146_" gradientUnits="userSpaceOnUse" x1="1710.3934" y1="1064.0469" x2="1746.3895" y2="1109.3401">
			<stop  offset="0.0923" style="stop-color:#F2D73E"/>
			<stop  offset="1" style="stop-color:#D2642D"/>
		</linearGradient>
		<circle class="st147" cx="1735.79" cy="1096" r="29.96"/>
	</g>
</g>
</svg>
