<?xml version="1.0" encoding="utf-8"?>
<!-- Generator: Adobe Illustrator 27.0.1, SVG Export Plug-In . SVG Version: 6.00 Build 0)  -->
<svg version="1.1" id="Capa_1" xmlns="http://www.w3.org/2000/svg" xmlns:xlink="http://www.w3.org/1999/xlink" x="0px" y="0px"
	 viewBox="0 0 1280 720" style="enable-background:new 0 0 1280 720;" xml:space="preserve">
<style type="text/css">
	.st0{fill:#FEFEFE;}
	.st1{fill:#1D6EF1;}
	.st2{fill:#FBFCFD;}
</style>
<g>
	<g>
		<path class="st0" d="M390.09,371.29c0-78.28,0.03-156.56-0.09-234.84c0-3.24,0.64-3.88,3.88-3.88c155.79,0.1,311.59,0.1,467.38,0
			c3.25,0,3.88,0.63,3.88,3.88c-0.1,156.56-0.1,313.12,0,469.67c0,3.24-0.64,3.88-3.88,3.88c-155.79-0.1-311.59-0.1-467.38,0
			c-3.25,0-3.89-0.63-3.88-3.88C390.12,527.84,390.09,449.56,390.09,371.29z M634.43,184.65
			c-107.35-1.34-192.31,89.01-192.14,192.01c0.18,106.96,85.22,192.52,191.97,192.06c105.18-0.46,189.71-83.87,190.62-190.71
			C825.77,273.33,740.25,184.22,634.43,184.65z"/>
		<path class="st1" d="M634.43,184.65c105.82-0.43,191.34,88.68,190.45,193.36c-0.91,106.84-85.44,190.26-190.62,190.71
			c-106.75,0.46-191.8-85.1-191.97-192.06C442.12,273.66,527.08,183.31,634.43,184.65z M613.09,381.46l-0.19,0.15l0.21-0.12
			c-1.12-1.93-3-2.97-4.82-4.08c-1.19-1.46-2.43-2.85-4.31-3.46c-1.65-2.16-3.68-3.88-6.09-5.14c-0.64-1.1-1.56-1.9-2.75-2.37
			c-1.97-1.59-3.94-3.19-5.9-4.78c-0.66-1.47-1.97-2.15-3.33-2.79c-0.47-0.37-0.93-0.73-1.4-1.1c-0.9-1.4-2.1-2.44-3.65-3.06
			c-0.67-0.57-1.33-1.14-2-1.71c-1.46-1.2-2.91-2.4-4.37-3.6c-0.46-0.33-0.93-0.65-1.39-0.98c-1.49-1.94-3.31-3.5-5.43-4.7
			c-2.74-2.7-5.6-5.24-8.84-7.33l-0.13-0.27l-0.3-0.02c-1.39-1.77-3.09-3.17-5.08-4.21c-0.69-1.07-1.55-1.95-2.82-2.33
			c-0.38-0.28-0.76-0.55-1.14-0.83c-1.84-1.9-3.51-4-6.07-5.05c-1.68-1.93-3.46-3.74-5.92-4.7l-0.09,0.05
			c-0.42-0.33-0.84-0.65-1.26-0.98c-0.08-0.35-0.3-0.51-0.66-0.48c-0.48-0.54-1.06-1.26-1.79-0.74c-0.8,0.57-0.53,1.53-0.26,2.37
			c0.01,1.26,0.02,2.52,0.03,3.79c-0.43,2.84-0.43,5.68,0,8.52c-0.44,5.68-0.44,11.36,0,17.04c-0.42,2.84-0.42,5.68,0,8.53
			c-0.43,3.16-0.43,6.31,0,9.47c-0.42,2.21-0.42,4.42,0,6.63c-0.43,3.47-0.44,6.94,0,10.41c-0.42,2.21-0.42,4.42,0,6.63
			c-0.45,6-0.45,12,0,17.99c-0.43,2.84-0.43,5.68,0,8.52c-0.42,2.84-0.42,5.68,0,8.52c-0.08,2.49-0.19,4.98-0.22,7.48
			c-0.02,1.39,0.39,2.89,2.09,1.69c2.19-1.55,5.42-1.96,6.23-5.18c2.61-1.08,4.95-2.6,7.15-4.36c0.97-0.63,1.94-1.26,2.91-1.9
			c1.38-0.48,2.66-1.13,3.62-2.28c1.65-0.64,3.16-1.47,4.31-2.85c1.38-0.14,2.42-0.84,3.25-1.91c0.46-0.33,0.91-0.66,1.37-0.99
			c2.39-0.75,4.32-2.25,6.16-3.88c0.44-0.29,0.89-0.57,1.33-0.86c2.73-1.04,5.12-2.64,7.32-4.54c2.94-1.85,6.44-2.84,8.74-5.67
			l-0.27-0.04l0.26,0.08c2.74-1.1,5.2-2.64,7.41-4.59c0.96-0.61,1.92-1.22,2.88-1.83c2.74-1.27,5.33-2.79,7.64-4.76
			c2.5-1.6,5-3.19,7.51-4.79C615.11,383.25,615.15,382.38,613.09,381.46z M539.79,314.94c0.08,1.35,0.88,1.88,1.58,2.45
			c27.82,23.03,55.6,46.1,83.5,69.04c8.25,6.78,12.09,6.51,20.34-0.23c23.7-19.36,47.48-38.62,71.12-58.06
			c4.94-4.06,10.29-7.71,15.25-13.2C667.13,314.94,603.54,314.94,539.79,314.94z M731.25,437.29c0.09-0.4,0.19-0.8,0.29-1.2
			c-0.7-0.57-1.35-1.2-2.1-1.69c-9.21-5.97-18.06-12.43-27.57-17.99c-15.79-9.23-31.28-18.96-46.8-28.64
			c-2.89-1.8-4.79-1.64-7.44,0.57c-10.2,8.53-15.56,8.5-25.64-0.16c-2.94-2.53-5.12-2.5-8.26-0.45c-9.6,6.26-19.38,12.23-29.1,18.3
			c-15.86,9.92-31.78,19.76-47.13,30.47c-0.63,0.44-1.37,0.85-0.85,2.35C601.4,438.33,666.33,437.81,731.25,437.29z M735.69,376
			c-0.02,0-0.03,0-0.05,0c0-17.65,0.03-35.3-0.05-52.95c-0.01-1.59,1.01-3.85-0.94-4.66c-1.52-0.63-2.71,1.25-3.88,2.21
			c-23.95,19.49-47.88,39.01-71.81,58.53c-4.85,3.96-4.8,3.91,0.72,7.47c23.73,15.28,48.22,29.36,71.35,45.58
			c1.08,0.76,2.26,2.31,3.7,1.54c1.66-0.88,0.92-2.82,0.93-4.3C735.71,411.61,735.69,393.81,735.69,376z"/>
		<path class="st2" d="M539.79,314.94c63.75,0,127.34,0,191.78,0c-4.96,5.49-10.31,9.14-15.25,13.2
			c-23.64,19.44-47.42,38.7-71.12,58.06c-8.26,6.74-12.1,7.02-20.34,0.23c-27.89-22.94-55.68-46.02-83.5-69.04
			C540.67,316.81,539.87,316.29,539.79,314.94z"/>
		<path class="st2" d="M731.25,437.29c-64.93,0.52-129.85,1.04-194.62,1.56c-0.52-1.5,0.22-1.91,0.85-2.35
			c15.35-10.71,31.27-20.55,47.13-30.47c9.71-6.08,19.5-12.04,29.1-18.3c3.14-2.05,5.32-2.08,8.26,0.45
			c10.08,8.66,15.44,8.69,25.64,0.16c2.65-2.21,4.55-2.37,7.44-0.57c15.52,9.68,31.01,19.41,46.8,28.64
			c9.51,5.55,18.36,12.02,27.57,17.99c0.75,0.49,1.4,1.12,2.1,1.69C731.44,436.49,731.35,436.89,731.25,437.29z"/>
		<path class="st2" d="M735.69,376c0,17.81,0.02,35.61-0.03,53.42c0,1.48,0.73,3.42-0.93,4.3c-1.45,0.77-2.62-0.78-3.7-1.54
			c-23.13-16.22-47.62-30.31-71.35-45.58c-5.52-3.55-5.57-3.51-0.72-7.47c23.93-19.52,47.86-39.04,71.81-58.53
			c1.18-0.96,2.36-2.84,3.88-2.21c1.95,0.81,0.93,3.07,0.94,4.66c0.07,17.65,0.05,35.3,0.05,52.95C735.66,376,735.68,376,735.69,376
			z"/>
		<path class="st0" d="M567.68,343.71c2.12,1.21,3.94,2.77,5.43,4.7c0.46,0.33,0.93,0.65,1.39,0.98c1.46,1.2,2.91,2.4,4.37,3.6
			c0.08,0.94-0.56,2.13,0.75,2.64c0.7,0.28,0.94-0.46,1.25-0.93c1.55,0.62,2.75,1.66,3.65,3.06c0.21,0.69,0.7,1.03,1.4,1.1
			c1.36,0.64,2.68,1.32,3.33,2.79c-1.81,6.24,3.34,3.92,5.9,4.78c1.19,0.48,2.1,1.27,2.75,2.37c0.27,3.8,2.01,5.85,6.09,5.14
			c1.88,0.61,3.12,2,4.31,3.46c-0.57,3.93,1.55,4.67,4.82,4.08l-0.21,0.12c0,0,0.19-0.15,0.19-0.15c-0.02,0.87-0.04,1.75-0.05,2.62
			c-2.5,1.6-5,3.19-7.51,4.78c-2.12-2.26-5.32-3.71-7.71-2.81c-2.42,0.92,0.74,4.02-0.03,6.2c-0.14,0.4,0.06,0.91,0.1,1.37
			c-0.96,0.61-1.92,1.22-2.88,1.83c-0.61-1.25,0.5-4.68-1.73-3.47c-2.73,1.48-6.51,3.52-5.68,8.07l-0.26-0.08
			c0,0,0.27,0.04,0.27,0.04c-6.74-0.4-8.23,0.57-8.74,5.67c-2.2,1.9-4.58,3.5-7.32,4.54c-0.44,0.29-0.89,0.57-1.33,0.86
			c-1.85,1.62-3.77,3.12-6.17,3.88c-0.46,0.33-0.91,0.66-1.37,0.99c-0.82,1.07-1.87,1.77-3.25,1.91c-2.17-0.15-4.68-0.81-4.31,2.85
			c-0.96,1.16-2.24,1.8-3.62,2.28c-0.43-0.84-1-1.61-2.04-1.19c-1.51,0.61-0.86,1.97-0.87,3.09c-2.2,1.76-4.54,3.28-7.15,4.36
			c-3.67,0.64-4.96-3.54-8.09-3.99c-0.42-2.84-0.42-5.68,0-8.52c3.86-2.99,3.86-5.53,0-8.52c-0.45-6-0.44-12,0-17.99
			c2.59-0.65,2.7-2.72,2.68-4.8c-0.02-1.78-1.38-1.8-2.68-1.83c-0.44-3.47-0.43-6.94,0-10.41c3.74-2.83,3.74-4.51,0-6.63
			c-0.43-3.16-0.43-6.31,0-9.47c3.12-0.58,3.54-3.01,3.64-5.52c0.09-2.43-1.53-3.08-3.64-3.01c-0.44-5.68-0.44-11.36,0-17.04
			c4.14-1.11,3.62-4.49,3.69-7.58c2.09-0.09,4.24,1.41,6.27-0.26c2.56,1.04,4.23,3.15,6.07,5.05c0.38,0.28,0.76,0.55,1.14,0.83
			c1.27,0.38,2.12,1.26,2.82,2.33c-0.07,3.53,1.95,4.54,5.08,4.21l0.3,0.02c0,0,0.13,0.27,0.13,0.27
			C559.31,341.73,560.92,343.07,567.68,343.71z M575.29,399.68c-0.32,0.36-0.8,0.66-0.79,0.93c0.01,0.28,0.48,0.72,0.79,0.77
			c0.59,0.08,1.26-0.14,1.06-0.94C576.28,400.16,575.73,399.98,575.29,399.68z M584.07,364.4c-0.26-0.11-0.58-0.38-0.77-0.3
			c-0.19,0.07-0.25,0.48-0.36,0.75c0.26,0.11,0.58,0.38,0.77,0.3C583.9,365.07,583.96,364.66,584.07,364.4z"/>
		<path class="st2" d="M533.35,425.26c3.13,0.44,4.42,4.63,8.09,3.99c-0.81,3.22-4.03,3.63-6.23,5.18c-1.7,1.2-2.11-0.29-2.09-1.69
			C533.16,430.24,533.27,427.75,533.35,425.26z"/>
		<path class="st2" d="M597.88,393.62c-0.04-0.46-0.24-0.97-0.1-1.37c0.77-2.18-2.39-5.28,0.03-6.2c2.39-0.9,5.59,0.55,7.71,2.81
			C603.22,390.83,600.63,392.35,597.88,393.62z"/>
		<path class="st2" d="M587.59,400.05c-0.83-4.55,2.95-6.58,5.68-8.07c2.23-1.21,1.12,2.22,1.73,3.47
			C592.79,397.4,590.33,398.95,587.59,400.05z"/>
		<path class="st2" d="M533.35,348.56c2.11-0.07,3.73,0.57,3.64,3.01c-0.09,2.51-0.52,4.94-3.64,5.52
			C532.92,354.24,532.92,351.4,533.35,348.56z"/>
		<path class="st2" d="M537.04,323.94c-0.07,3.09,0.45,6.46-3.69,7.58c-0.43-2.84-0.42-5.68,0-8.52
			C534.58,323.31,535.81,323.62,537.04,323.94z"/>
		<path class="st2" d="M567.68,343.71c-6.76-0.65-8.37-1.99-8.84-7.33C562.07,338.48,564.94,341.02,567.68,343.71z"/>
		<path class="st2" d="M578.86,405.67c0.51-5.1,2.01-6.07,8.74-5.67C585.3,402.83,581.8,403.82,578.86,405.67z"/>
		<path class="st2" d="M533.35,408.22c3.86,3,3.86,5.53,0,8.52C532.92,413.9,532.92,411.06,533.35,408.22z"/>
		<path class="st2" d="M543.3,323.68c-2.02,1.66-4.18,0.16-6.27,0.26c0.12-1.65,0.23-3.3,0.35-4.96
			C539.84,319.95,541.62,321.75,543.3,323.68z"/>
		<path class="st0" d="M537.39,318.98c-0.12,1.65-0.23,3.3-0.35,4.96c-1.23-0.32-2.45-0.63-3.68-0.95
			c-0.01-1.26-0.02-2.52-0.03-3.79c1.04-0.09,1.78-0.57,2.05-1.63c0.36-0.03,0.58,0.13,0.66,0.48c0.42,0.33,0.84,0.65,1.26,0.98
			L537.39,318.98z"/>
		<path class="st2" d="M533.35,383.59c1.29,0.03,2.66,0.05,2.68,1.83c0.02,2.08-0.09,4.15-2.68,4.8
			C532.93,388.01,532.93,385.8,533.35,383.59z"/>
		<path class="st2" d="M533.35,366.55c3.74,2.12,3.74,3.79,0,6.63C532.93,370.97,532.93,368.76,533.35,366.55z"/>
		<path class="st2" d="M595.14,366.45c-2.56-0.86-7.71,1.46-5.9-4.78C591.21,363.26,593.17,364.85,595.14,366.45z"/>
		<path class="st2" d="M603.98,373.95c-4.08,0.72-5.82-1.34-6.09-5.14C600.3,370.08,602.33,371.79,603.98,373.95z"/>
		<path class="st2" d="M613.11,381.49c-3.26,0.6-5.39-0.15-4.82-4.08C610.11,378.52,611.99,379.56,613.11,381.49z"/>
		<path class="st2" d="M558.41,336.1c-3.13,0.33-5.15-0.67-5.08-4.21C555.32,332.93,557.02,334.32,558.41,336.1z"/>
		<path class="st2" d="M555.12,420.71c-0.37-3.67,2.14-3.01,4.31-2.85C558.28,419.24,556.77,420.07,555.12,420.71z"/>
		<path class="st2" d="M548.59,424.89c0.01-1.11-0.64-2.47,0.87-3.09c1.04-0.42,1.61,0.35,2.04,1.19
			C550.53,423.63,549.56,424.26,548.59,424.89z"/>
		<path class="st2" d="M535.37,317.58c-0.27,1.06-1.01,1.54-2.05,1.63c-0.26-0.84-0.54-1.8,0.26-2.37
			C534.31,316.32,534.89,317.03,535.37,317.58z"/>
		<path class="st2" d="M580.86,354.71c-0.31,0.46-0.55,1.2-1.25,0.93c-1.3-0.52-0.67-1.71-0.75-2.64
			C579.53,353.56,580.19,354.14,580.86,354.71z"/>
		<path class="st2" d="M613.03,384.08c0.02-0.87,0.04-1.75,0.05-2.62C615.15,382.38,615.11,383.25,613.03,384.08z"/>
		<path class="st2" d="M537.3,319.03c-0.42-0.33-0.84-0.65-1.26-0.98C536.46,318.38,536.88,318.71,537.3,319.03z"/>
		<path class="st2" d="M550.51,329.56c-0.38-0.28-0.76-0.55-1.14-0.83C549.75,329,550.13,329.28,550.51,329.56z"/>
		<path class="st2" d="M574.49,349.4c-0.46-0.33-0.93-0.65-1.39-0.98C573.57,348.74,574.03,349.07,574.49,349.4z"/>
		<path class="st2" d="M570.21,411.07c0.44-0.29,0.88-0.57,1.33-0.86C571.1,410.5,570.65,410.79,570.21,411.07z"/>
		<path class="st2" d="M562.68,415.94c0.46-0.33,0.91-0.66,1.37-0.99C563.59,415.28,563.13,415.61,562.68,415.94z"/>
		<path class="st2" d="M585.91,358.87c-0.7-0.07-1.19-0.41-1.4-1.1C584.98,358.13,585.44,358.5,585.91,358.87z"/>
		<path class="st2" d="M575.29,399.68c0.44,0.3,0.99,0.47,1.06,0.77c0.2,0.8-0.46,1.02-1.06,0.94c-0.31-0.04-0.78-0.49-0.79-0.77
			C574.49,400.34,574.97,400.04,575.29,399.68z"/>
		<path class="st2" d="M584.07,364.4c-0.12,0.26-0.17,0.67-0.36,0.74c-0.19,0.07-0.51-0.19-0.77-0.3c0.12-0.26,0.17-0.67,0.36-0.75
			C583.49,364.02,583.81,364.29,584.07,364.4z"/>
	</g>
</g>
</svg>
